<?xml version="1.0" encoding="UTF-8" standalone="no"?>
<!-- Created with Inkscape (http://www.inkscape.org/) -->

<svg
   width="31.4mm"
   height="31.4mm"
   viewBox="0 0 31.399999 31.399999"
   version="1.1"
   id="svg94230"
   xmlns="http://www.w3.org/2000/svg"
   xmlns:svg="http://www.w3.org/2000/svg">
  <defs
     id="defs94227">
    <rect
       x="197.28707"
       y="28.839354"
       width="188.79495"
       height="205.76654"
       id="rect108830" />
  </defs>
  <g
     id="layer1"
     transform="translate(0.69999999,0.69999999)">
    <g
       id="g36713"
       transform="matrix(0.93800494,0,0,0.93800494,-189.77244,-12.254282)"
       style="stroke-width:1.06609">
      <rect
         style="fill:none;fill-opacity:1;stroke:#08150e;stroke-width:1.49253;stroke-linejoin:round;stroke-miterlimit:3.5;stroke-dasharray:none;stroke-dashoffset:11.2252;stroke-opacity:1;paint-order:normal"
         id="rect29306-8"
         width="30.697546"
         height="4.724236"
         x="159.56253"
         y="-136.18262"
         transform="rotate(45)" />
      <rect
         style="fill:none;fill-opacity:1;stroke:#08150e;stroke-width:1.49253;stroke-linejoin:round;stroke-miterlimit:3.5;stroke-dasharray:none;stroke-dashoffset:11.2252;stroke-opacity:1;paint-order:normal"
         id="rect29306-8-9"
         width="30.697546"
         height="4.724236"
         x="-149.16927"
         y="172.54918"
         transform="matrix(-0.70710678,0.70710678,0.70710678,0.70710678,0,0)" />
      <path
         id="rect29306-0-9-8"
         style="fill:#f2faf6;stroke:#08150e;stroke-width:0.319828;stroke-linejoin:round;stroke-miterlimit:3.5;stroke-dashoffset:11.2252;fill-opacity:1"
         d="M -136.18278 159.56243 L -131.45822 159.56243 L -131.45861 172.54914 L -118.47152 172.54914 L -118.47191 177.27331 L -131.45822 177.27331 L -131.45861 190.26001 L -136.18239 190.26001 L -136.18278 177.27331 L -149.1691 177.27331 L -149.16949 172.54914 L -136.18239 172.54914 L -136.18278 159.56243 z "
         transform="matrix(-0.70710678,0.70710678,0.70710678,0.70710678,0,0)" />
      <text
         xml:space="preserve"
         transform="matrix(0.2820703,0,0,0.2820703,201.5687,12.317933)"
         id="text108828"
         style="font-size:96px;line-height:1;font-family:'Ubuntu Titling';-inkscape-font-specification:'Ubuntu Titling, Normal';white-space:pre;shape-inside:url(#rect108830);display:inline;fill:#5d33b9;stroke:#08150e;stroke-width:5.29134;stroke-linecap:round;stroke-linejoin:round;stroke-miterlimit:3.5;stroke-dashoffset:11.2252;paint-order:stroke markers fill" />
    </g>
  </g>
</svg>
