<?xml version="1.0" encoding="UTF-8" standalone="no"?>
<!-- Created with Inkscape (http://www.inkscape.org/) -->

<svg
   width="31.4mm"
   height="31.4mm"
   viewBox="0 0 31.399999 31.399999"
   version="1.1"
   id="svg94230"
   xmlns="http://www.w3.org/2000/svg"
   xmlns:svg="http://www.w3.org/2000/svg">
  <defs
     id="defs94227" />
  <g
     id="layer1"
     transform="translate(0.69999999,0.69999999)">
    <g
       id="g36713"
       transform="matrix(0.93800494,0,0,0.93800494,-189.77244,-12.254282)"
       style="stroke-width:1.06609">
      <path
         id="path36330-8"
         style="color:#000000;font-size:96px;line-height:1;font-family:'Ubuntu Titling';-inkscape-font-specification:'Ubuntu Titling, Normal';white-space:pre;fill:none;fill-opacity:1;stroke:#08150e;stroke-width:1.49253;stroke-linejoin:round;stroke-miterlimit:3.5;stroke-dasharray:none;stroke-dashoffset:11.2252;stroke-opacity:1;paint-order:normal"
         d="m 221.50098,33.209353 -0.12733,1.129245 -1.18299,0.340703 -0.7084,-0.888855 -0.939,0.74848 0.70868,0.888558 -0.59561,1.077307 -1.12925,-0.127316 -0.13445,1.193054 1.12924,0.127316 0.34042,1.182964 -0.88856,0.708115 0.74877,0.93901 0.88826,-0.708411 1.07731,0.59564 -0.12732,1.129245 1.19304,0.134141 0.12736,-1.128948 1.18267,-0.340702 0.70839,0.888851 0.93901,-0.748474 -0.70841,-0.888855 0.59563,-1.077014 1.12894,0.127318 0.13446,-1.193053 -1.12896,-0.127318 -0.34069,-1.182666 0.88885,-0.708411 -0.74877,-0.939308 -0.88855,0.708413 -1.07702,-0.595343 0.12732,-1.129245 z m -0.22024,2.940789 1.01618,0.133848 0.62413,0.813471 -0.13384,1.016172 -0.8132,0.624128 -1.01647,-0.133848 -0.62412,-0.813174 0.13385,-1.01647 z" />
      <path
         id="path36330-5-7"
         style="color:#000000;font-size:96px;line-height:1;font-family:'Ubuntu Titling';-inkscape-font-specification:'Ubuntu Titling, Normal';white-space:pre;shape-inside:url(#rect34447);fill:none;fill-opacity:1;stroke:#08150e;stroke-width:1.49253;stroke-linejoin:round;stroke-miterlimit:3.5;stroke-dasharray:none;stroke-dashoffset:11.2252;stroke-opacity:1;paint-order:normal"
         d="m 227.08048,27.683902 0.20472,1.358804 -1.27508,0.768167 -1.10562,-0.816476 -0.86252,1.168099 1.10586,0.816039 -0.35853,1.444713 -1.35881,0.204707 0.21638,1.435559 1.35876,-0.204704 0.76783,1.275163 -0.81623,1.105172 1.16847,0.86242 0.81579,-1.10542 1.44469,0.358545 0.2047,1.358809 1.43547,-0.216708 -0.20462,-1.358459 1.27475,-0.768073 1.10559,0.816472 0.86255,-1.168099 -1.10565,-0.816475 0.35867,-1.444363 1.35847,-0.204613 -0.21638,-1.435559 -1.35847,0.204613 -0.76805,-1.274732 0.81647,-1.105606 -1.16856,-0.86277 -0.81612,1.105515 -1.44428,-0.358291 -0.20466,-1.358808 z m 0.66315,3.503761 1.22878,-0.161695 0.98357,0.754806 0.1617,1.228782 -0.75447,0.983478 -1.22912,0.161785 -0.98352,-0.75446 -0.16174,-1.229127 z" />
      <rect
         style="opacity:1;fill:none;fill-opacity:1;stroke:#08150e;stroke-width:1.49253;stroke-linejoin:round;stroke-miterlimit:3.5;stroke-dasharray:none;stroke-dashoffset:11.2252;stroke-opacity:1;paint-order:normal"
         id="rect29306"
         width="26.978374"
         height="22.235868"
         x="202.93658"
         y="16.432621" />
      <rect
         style="fill:#3493be;fill-opacity:1;stroke:#08150e;stroke-width:0.319828;stroke-linejoin:round;stroke-miterlimit:3.5;stroke-dasharray:none;stroke-dashoffset:11.2252;stroke-opacity:1;paint-order:normal"
         id="rect29306-0"
         width="26.978374"
         height="2.7877595"
         x="202.93658"
         y="16.432621" />
      <rect
         style="fill:#13261c;fill-opacity:1;stroke:#08150e;stroke-width:0.319827;stroke-linejoin:round;stroke-miterlimit:3.5;stroke-dasharray:none;stroke-dashoffset:11.2252;stroke-opacity:1;paint-order:normal"
         id="rect29306-0-7"
         width="26.978374"
         height="19.448107"
         x="202.93658"
         y="19.220377" />
      <path
         d="m 205.68096,23.562223 q -0.0478,0.06691 -0.0669,0.181605 -0.01,0.114698 -0.0669,0.229395 -0.0478,0.114696 -0.16249,0.200719 -0.1147,0.07646 -0.35365,0.07646 -0.21029,0 -0.38235,-0.143372 -0.17203,-0.143371 -0.17203,-0.420557 0,-0.277182 0.12426,-0.516135 0.12428,-0.238954 0.33453,-0.420557 0.21984,-0.181604 0.51615,-0.277184 0.29629,-0.105139 0.64995,-0.105139 0.45879,0 0.7742,0.162489 0.32498,0.162487 0.58304,0.363205 0.26764,0.191163 0.51614,0.35365 0.25806,0.162489 0.5926,0.162489 0.24851,0 0.35364,-0.133814 0.1147,-0.143372 0.19118,-0.305859 0.086,-0.162489 0.19116,-0.2963 0.1147,-0.143371 0.36321,-0.143371 0.19116,0 0.35363,0.124255 0.16252,0.114695 0.21029,0.363207 0,0.315416 -0.15293,0.563926 -0.15293,0.238953 -0.40144,0.410999 -0.23896,0.172046 -0.54482,0.258068 -0.30583,0.08603 -0.61172,0.08603 -0.32496,0 -0.56392,-0.06691 -0.22938,-0.07646 -0.42054,-0.191161 -0.18161,-0.114698 -0.33454,-0.238953 -0.14338,-0.124255 -0.28675,-0.238953 -0.13381,-0.114696 -0.29629,-0.181604 -0.15296,-0.07646 -0.34411,-0.07646 -0.17203,0 -0.33454,0.03823 -0.1529,0.03823 -0.25806,0.181604 z"
         id="path35227"
         style="font-size:96px;line-height:1;font-family:'Ubuntu Titling';-inkscape-font-specification:'Ubuntu Titling, Normal';white-space:pre;fill:#92bc34;fill-opacity:1;stroke:none;stroke-width:0.319828;stroke-linejoin:round;stroke-miterlimit:3.5;stroke-dashoffset:11.2252" />
      <path
         d="m 217.15227,26.706837 c 0.13384,0.108324 0.2103,0.219836 0.22939,0.334534 0.0255,0.108325 0.007,0.203904 -0.0574,0.286742 -0.0573,0.08284 -0.14977,0.146559 -0.27719,0.191162 -0.12744,0.03823 -0.26763,0.04142 -0.42056,0.0096 -0.67546,-0.331348 -1.3445,-0.662695 -2.00719,-0.994042 -0.65634,-0.331348 -1.32222,-0.66588 -1.99766,-1.0036 -0.22302,-0.121069 -0.33452,-0.264441 -0.33452,-0.430114 0,-0.0052 0,-0.398255 0,-0.398255 l 5.05622,-1.79692 c 0,0 0.006,0.457052 0,0.484276 -0.019,0.108325 -0.0987,0.21665 -0.23894,0.324976 l -3.1255,1.405039 z"
         id="path35229"
         style="font-size:96px;line-height:1;font-family:'Ubuntu Titling';-inkscape-font-specification:'Ubuntu Titling, Normal';white-space:pre;fill:#475c19;fill-opacity:1;stroke:none;stroke-width:0.319828;stroke-linejoin:round;stroke-miterlimit:3.5;stroke-dashoffset:11.2252" />
      <path
         d="m 212.4975,21.300143 q -0.24852,-0.191163 -0.24852,-0.410999 0,-0.105139 0.0478,-0.191162 0.0573,-0.09558 0.14335,-0.152929 0.0957,-0.0669 0.21028,-0.08602 0.12426,-0.01912 0.26761,0.01911 1.03229,0.497023 2.055,0.994042 1.02274,0.497022 2.04543,1.003602 0.32498,0.181601 0.32498,0.430113 0,0.114696 -0.0861,0.229394 -0.0764,0.114698 -0.23895,0.20072 l -4.05262,1.777804 q -0.14336,0.03823 -0.26763,0.01912 -0.11468,-0.01912 -0.21027,-0.07646 -0.0956,-0.0669 -0.15295,-0.15293 -0.0478,-0.09558 -0.0478,-0.20072 0,-0.219836 0.24853,-0.410998 l 3.13503,-1.405039 q -1.5962,-0.783764 -3.17328,-1.586644 z"
         id="path35231"
         style="font-size:96px;line-height:1;font-family:'Ubuntu Titling';-inkscape-font-specification:'Ubuntu Titling, Normal';white-space:pre;fill:#92bc34;fill-opacity:1;stroke:none;stroke-width:0.319828;stroke-linejoin:round;stroke-miterlimit:3.5;stroke-dashoffset:11.2252" />
      <path
         id="path36330"
         style="color:#000000;font-size:96px;line-height:1;font-family:'Ubuntu Titling';-inkscape-font-specification:'Ubuntu Titling, Normal';white-space:pre;fill:#a3c8b5;fill-opacity:1;stroke:#08150e;stroke-width:0.319828;stroke-linejoin:round;stroke-miterlimit:3.5;stroke-dasharray:none;stroke-dashoffset:11.2252;stroke-opacity:1;paint-order:normal"
         d="m 221.50098,33.209353 -0.12733,1.129245 -1.18299,0.340703 -0.7084,-0.888855 -0.939,0.74848 0.70868,0.888558 -0.59561,1.077307 -1.12925,-0.127316 -0.13445,1.193054 1.12924,0.127316 0.34042,1.182964 -0.88856,0.708115 0.74877,0.93901 0.88826,-0.708411 1.07731,0.59564 -0.12732,1.129245 1.19304,0.134141 0.12736,-1.128948 1.18267,-0.340702 0.70839,0.888851 0.93901,-0.748474 -0.70841,-0.888855 0.59563,-1.077014 1.12894,0.127318 0.13446,-1.193053 -1.12896,-0.127318 -0.34069,-1.182666 0.88885,-0.708411 -0.74877,-0.939308 -0.88855,0.708413 -1.07702,-0.595343 0.12732,-1.129245 z m -0.22024,2.940789 1.01618,0.133848 0.62413,0.813471 -0.13384,1.016172 -0.8132,0.624128 -1.01647,-0.133848 -0.62412,-0.813174 0.13385,-1.01647 z" />
      <path
         id="path36330-5"
         style="color:#000000;font-size:96px;line-height:1;font-family:'Ubuntu Titling';-inkscape-font-specification:'Ubuntu Titling, Normal';white-space:pre;shape-inside:url(#rect34447);fill:#599275;fill-opacity:1;stroke:#08150e;stroke-width:0.319828;stroke-linejoin:round;stroke-miterlimit:3.5;stroke-dasharray:none;stroke-dashoffset:11.2252;stroke-opacity:1;paint-order:normal"
         d="m 227.08048,27.683902 0.20472,1.358804 -1.27508,0.768167 -1.10562,-0.816476 -0.86252,1.168099 1.10586,0.816039 -0.35853,1.444713 -1.35881,0.204707 0.21638,1.435559 1.35876,-0.204704 0.76783,1.275163 -0.81623,1.105172 1.16847,0.86242 0.81579,-1.10542 1.44469,0.358545 0.2047,1.358809 1.43547,-0.216708 -0.20462,-1.358459 1.27475,-0.768073 1.10559,0.816472 0.86255,-1.168099 -1.10565,-0.816475 0.35867,-1.444363 1.35847,-0.204613 -0.21638,-1.435559 -1.35847,0.204613 -0.76805,-1.274732 0.81647,-1.105606 -1.16856,-0.86277 -0.81612,1.105515 -1.44428,-0.358291 -0.20466,-1.358808 z m 0.66315,3.503761 1.22878,-0.161695 0.98357,0.754806 0.1617,1.228782 -0.75447,0.983478 -1.22912,0.161785 -0.98352,-0.75446 -0.16174,-1.229127 z" />
    </g>
  </g>
</svg>
