<?xml version="1.0" encoding="UTF-8" standalone="no"?>
<!-- Created with Inkscape (http://www.inkscape.org/) -->

<svg
   width="31.4mm"
   height="31.4mm"
   viewBox="0 0 31.399999 31.399999"
   version="1.1"
   id="svg94230"
   xmlns="http://www.w3.org/2000/svg"
   xmlns:svg="http://www.w3.org/2000/svg">
  <defs
     id="defs94227" />
  <g
     id="layer1"
     transform="translate(0.69999999,0.69999999)">
    <g
       id="g58225"
       transform="matrix(0.92374746,0,0,0.92374746,-54.072678,163.70852)"
       style="stroke-width:1.08255">
      <path
         id="path54980-3-7"
         style="color:#000000;fill:none;fill-opacity:1;stroke:#08150e;stroke-width:1.51557;stroke-linecap:round;stroke-linejoin:round;stroke-miterlimit:3.5;stroke-dasharray:none;stroke-dashoffset:11.2252;stroke-opacity:1"
         d="m 75.691024,-165.50436 1.86087,0.71774 1.83108,1.18906 0.33348,0.75145 c 0.0541,-0.0241 0.11242,-0.0365 0.17156,-0.0368 h 2.28274 l 2.5357,2.53394 -0.31423,2.73089 -2.21972,1.28185 -1.82496,-1.05515 2.92651,2.84729 v 3.37859 l -8.53008,4.32608 -10.90077,-5.52784 v -0.80964 h -1.38338 l -1.8311,-1.21227 v -1.79258 l 2.3405,-3.30725 z m 6.12918,3.46831 h -1.93219 -4.4e-4 v 1.36851 l -1.90112,0.979 1.63197,1.58821 0.59738,-0.34486 1.9567,1.12998 1.42583,-0.82362 0.21969,-1.90069 z" />
      <path
         id="rect47863-5-5-1"
         style="fill:none;fill-opacity:1;stroke:#08150e;stroke-width:1.51557;stroke-linecap:round;stroke-linejoin:round;stroke-miterlimit:3.5;stroke-dasharray:none;stroke-dashoffset:11.2252;stroke-opacity:1;paint-order:normal"
         d="m 73.022524,-175.12852 -0.72287,2.69777 h -10.05472 v 2.44425 h 9.39983 l -0.85394,3.18517 -3.35226,-2e-5 1e-5,2.44426 h 2.69736 l -0.59427,2.21778 3.61027,0.96738 -7.59243,-1e-5 v 2.44427 l 16.33861,-1e-5 -3e-5,-0.10039 5.072,1.35893 3.48045,-12.98964 z m -13.92425,8.32717 v 2.44426 h 6.29332 v -2.44426 z m 1.59279,5.62942 v 2.44425 h 2.82187 v -2.44425 z" />
      <g
         id="g56274"
         transform="matrix(1.1673554,0,0,1.1673554,-219.45129,31.582261)"
         style="stroke-width:0.92735">
        <path
           id="rect50780-3"
           style="fill:#3493be;stroke:#08150e;stroke-width:0.278205;stroke-linecap:round;stroke-linejoin:round;stroke-miterlimit:3.5;stroke-dashoffset:11.2252"
           d="m 244.15102,-165.12033 h 13.99619 v 2.09396 h -13.99619 z" />
        <path
           id="rect50780-8-9"
           style="fill:#3493be;stroke:#08150e;stroke-width:0.278205;stroke-linecap:round;stroke-linejoin:round;stroke-miterlimit:3.5;stroke-dashoffset:11.2252"
           d="m 238.61589,-169.94272 h 5.39108 v 2.09397 h -5.39108 z" />
        <path
           id="rect50780-8-6-6"
           style="fill:#3493be;stroke:#08150e;stroke-width:0.278205;stroke-linecap:round;stroke-linejoin:round;stroke-miterlimit:3.5;stroke-dashoffset:11.2252"
           d="m 245.76044,-169.94272 h 11.39236 v 2.09397 h -11.39236 z" />
        <path
           id="rect50780-8-8-4"
           style="fill:#3493be;stroke:#08150e;stroke-width:0.278205;stroke-linecap:round;stroke-linejoin:round;stroke-miterlimit:3.5;stroke-dashoffset:11.2252"
           d="m 239.9804,-165.12033 h 2.41714 v 2.09396 h -2.41714 z" />
        <path
           id="rect50780-0-2"
           style="fill:#3493be;stroke:#08150e;stroke-width:0.278205;stroke-linecap:round;stroke-linejoin:round;stroke-miterlimit:3.5;stroke-dashoffset:11.2252"
           d="m 241.31143,-174.7651 h 11.6631 v 2.09397 h -11.6631 z" />
        <rect
           style="fill:#f2faf6;fill-opacity:1;stroke:#08150e;stroke-width:0.278205;stroke-linecap:round;stroke-linejoin:round;stroke-miterlimit:3.5;stroke-dasharray:none;stroke-dashoffset:11.2252;stroke-opacity:1;paint-order:normal"
           id="rect47863-0-0"
           width="15.456355"
           height="11.519709"
           x="196.17601"
           y="-235.88791"
           transform="rotate(15)" />
        <path
           style="fill:#a3c8b5;fill-opacity:1;stroke:#08150e;stroke-width:0.278205;stroke-linecap:round;stroke-linejoin:round;stroke-miterlimit:3.5;stroke-dasharray:none;stroke-dashoffset:11.2252;stroke-opacity:1;paint-order:normal"
           d="m 247.56222,-165.94896 6.80968,-5.45558 4.95046,1.32648 3.16956,8.1295 z"
           id="path47921-7-2" />
        <path
           style="fill:#f2faf6;fill-opacity:1;stroke:#08150e;stroke-width:0.278205;stroke-linecap:round;stroke-linejoin:round;stroke-miterlimit:3.5;stroke-dasharray:none;stroke-dashoffset:11.2252;stroke-opacity:1;paint-order:normal"
           d="m 250.54374,-177.07613 3.16956,8.1295 4.95047,1.32647 6.80967,-5.45558 z"
           id="path47923-4-9" />
        <path
           style="fill:#a3c8b5;fill-opacity:1;stroke:#08150e;stroke-width:0.278205;stroke-linecap:round;stroke-linejoin:round;stroke-miterlimit:3.5;stroke-dasharray:none;stroke-dashoffset:11.2252;stroke-opacity:1;paint-order:normal"
           d="m 265.47344,-173.07574 -5.57762,4.46853 2.5961,6.65865 z"
           id="path48186-7-5" />
      </g>
      <g
         id="g56318"
         transform="matrix(0.9000577,0,0,0.9000577,71.861967,-17.505684)"
         style="stroke-width:1.20275">
        <path
           style="color:#000000;fill:#1c485c;fill-opacity:1;stroke:#08150e;stroke-width:0.360825;stroke-linecap:round;stroke-miterlimit:3.5;stroke-dasharray:none;stroke-dashoffset:11.2252;stroke-opacity:1"
           d="m 11.453704,-161.51999 2.817261,2.81542 -0.349179,3.03412 -2.466249,1.42425 -2.1740589,-1.257 -3.105796,1.79363 a 0.47046318,0.47046318 0 0 1 -0.641368,-0.17275 0.47046318,0.47046318 0 0 1 0.170912,-0.64321 l 3.576252,-2.06379 2.1740589,1.25517 1.584137,-0.91518 0.24442,-2.11157 -2.219994,-2.21816 H 8.9176131 a 0.47046318,0.47046318 0 0 1 -0.470467,-0.47047 0.47046318,0.47046318 0 0 1 0.470467,-0.47046 z"
           id="path54980-6" />
        <path
           style="fill:#5c2e19;fill-opacity:1;stroke:#08150e;stroke-width:0.360825;stroke-linecap:round;stroke-linejoin:round;stroke-miterlimit:3.5;stroke-dasharray:none;stroke-dashoffset:11.2252;stroke-opacity:1;paint-order:normal"
           d="m 3.2020311,-143.69489 -12.11095,-6.14192 v -7.23917 l 4.62833,2.34721 7.48262,7.28007 z"
           id="path51088-7-0-6" />
        <path
           style="fill:#5c1947;fill-opacity:1;stroke:#08150e;stroke-width:0.360825;stroke-linecap:round;stroke-linejoin:round;stroke-miterlimit:3.5;stroke-dasharray:none;stroke-dashoffset:11.2252;stroke-opacity:1;paint-order:normal"
           d="m 3.2019381,-143.69494 9.4774429,-4.8064 v -3.75379 l -9.4774429,4.80637 z"
           id="path51088-7-6-8-2-9" />
        <path
           style="fill:#5c2e19;fill-opacity:1;stroke:#08150e;stroke-width:0.360825;stroke-linecap:round;stroke-linejoin:round;stroke-miterlimit:3.5;stroke-dasharray:none;stroke-dashoffset:11.2252;stroke-opacity:1;paint-order:normal"
           d="m 6.0879321,-157.60175 v -1.99163 l -1.326314,-1.22904 -2.078943,-1.05431 -1.038223,0.46902 v 1.99162 z"
           id="path51750-6-4-1" />
        <path
           style="fill:#5c1947;fill-opacity:1;stroke:#08150e;stroke-width:0.360825;stroke-linecap:round;stroke-linejoin:round;stroke-miterlimit:3.5;stroke-dasharray:none;stroke-dashoffset:11.2252;stroke-opacity:1;paint-order:normal"
           d="m 8.9169481,-161.05013 v 1.99163 l -2.829016,1.45675 v -1.99163 z"
           id="path51752-0-5-4" />
        <path
           style="fill:#b93390;fill-opacity:1;stroke:#08150e;stroke-width:0.360825;stroke-linecap:round;stroke-linejoin:round;stroke-miterlimit:3.5;stroke-dasharray:none;stroke-dashoffset:11.2252;stroke-opacity:1;paint-order:normal"
           d="m 0.56852412,-161.88236 -9.47744302,4.80638 4.62833,2.34721 7.48262,7.28007 9.4774549,-4.80638 -7.4826309,-7.28009 z"
           id="path51225-0-8-3" />
        <path
           id="path51508-7-6-4-6"
           style="fill:#b93390;fill-opacity:1;stroke:#08150e;stroke-width:0.360825;stroke-linecap:round;stroke-linejoin:round;stroke-miterlimit:3.5;stroke-dasharray:none;stroke-dashoffset:11.2252;stroke-opacity:1;paint-order:normal"
           d="m -7.1524229,-152.72769 -3.2936001,-0.0259 -2.03463,-1.3213 2.6006221,-3.67437 14.134234,-6.68331 2.079142,1.05463 -14.042013,6.63934" />
        <path
           id="path51756-4-0-7"
           style="fill:#5c1947;fill-opacity:1;stroke:#08150e;stroke-width:0.360825;stroke-linecap:round;stroke-linejoin:round;stroke-miterlimit:3.5;stroke-dasharray:none;stroke-dashoffset:11.2252;stroke-opacity:1;paint-order:normal"
           d="m -7.7086909,-156.73859 14.042036,-6.63934 2.583509,2.32771 -2.828805,1.45684 -1.326221,-1.22889 -10.765573,5.193 0.742496,1.5615 -2.392495,1.31418 -2.7922791,3e-5 -2.034479,-1.3211 2.6004711,-3.67457 z" />
        <path
           id="path51762-5-8-6"
           style="fill:#5c1947;fill-opacity:1;stroke:#08150e;stroke-width:0.360825;stroke-linecap:round;stroke-linejoin:round;stroke-miterlimit:3.5;stroke-dasharray:none;stroke-dashoffset:11.2252;stroke-opacity:1;paint-order:normal"
           d="m -5.2615639,-154.06772 v 1.99163 l -2.392285,1.34006 h -2.7919751 v -2.01739 h 2.7919751 v 0.0258 z" />
        <path
           style="fill:#5c2e19;fill-opacity:1;stroke:#08150e;stroke-width:0.360825;stroke-linecap:round;stroke-linejoin:round;stroke-miterlimit:3.5;stroke-dasharray:none;stroke-dashoffset:11.2252;stroke-opacity:1;paint-order:normal"
           d="m -10.446023,-150.73605 -2.034479,-1.34699 v -1.99162 l 2.034479,1.32107 z"
           id="path51766-1-42-9" />
        <path
           style="fill:#5c2e19;fill-opacity:1;stroke:#08150e;stroke-width:0.360825;stroke-linecap:round;stroke-linejoin:round;stroke-miterlimit:3.5;stroke-dasharray:none;stroke-dashoffset:11.2252;stroke-opacity:1;paint-order:normal"
           d="m 3.9386671,-158.89708 -1.274705,-0.64645 v -1.062 l 1.274705,0.64645 z"
           id="path51355-0-0-5-7" />
        <path
           style="fill:#5c1947;fill-opacity:1;stroke:#08150e;stroke-width:0.360825;stroke-linecap:round;stroke-linejoin:round;stroke-miterlimit:3.5;stroke-dasharray:none;stroke-dashoffset:11.2252;stroke-opacity:1;paint-order:normal"
           d="m 5.1968551,-160.59716 -1.258188,0.63808 v 1.062 l 1.258188,-0.63808 z"
           id="path51357-13-9-4-6" />
        <path
           style="fill:#b93390;fill-opacity:1;stroke:#08150e;stroke-width:0.360825;stroke-linecap:round;stroke-linejoin:round;stroke-miterlimit:3.5;stroke-dasharray:none;stroke-dashoffset:11.2252;stroke-opacity:1;paint-order:normal"
           d="m 3.9221611,-161.24363 1.274694,0.64647 -1.258188,0.63808 -1.274705,-0.64645 z"
           id="path51386-3-3-2-0" />
        <path
           style="fill:#5c2e19;fill-opacity:1;stroke:#08150e;stroke-width:0.360825;stroke-linecap:round;stroke-linejoin:round;stroke-miterlimit:3.5;stroke-dasharray:none;stroke-dashoffset:11.2252;stroke-opacity:1;paint-order:normal"
           d="m -4.2805889,-154.72877 -1.274705,-0.64646 v -1.062 l 1.274705,0.64646 z"
           id="path51355-02-7-9" />
        <path
           style="fill:#5c1947;fill-opacity:1;stroke:#08150e;stroke-width:0.360825;stroke-linecap:round;stroke-linejoin:round;stroke-miterlimit:3.5;stroke-dasharray:none;stroke-dashoffset:11.2252;stroke-opacity:1;paint-order:normal"
           d="m -3.0223899,-156.42886 -1.258199,0.63809 v 1.062 l 1.258199,-0.63808 z"
           id="path51357-6-57-0" />
        <path
           style="fill:#b93390;fill-opacity:1;stroke:#08150e;stroke-width:0.360825;stroke-linecap:round;stroke-linejoin:round;stroke-miterlimit:3.5;stroke-dasharray:none;stroke-dashoffset:11.2252;stroke-opacity:1;paint-order:normal"
           d="m -4.2970949,-157.0753 1.274705,0.64644 -1.258199,0.63809 -1.274705,-0.64646 z"
           id="path51386-4-5-7" />
        <path
           id="path51355-02-0-22-6"
           style="fill:#1c485c;fill-opacity:1;stroke:#08150e;stroke-width:0.360825;stroke-linecap:round;stroke-linejoin:round;stroke-miterlimit:3.5;stroke-dasharray:none;stroke-dashoffset:11.2252;stroke-opacity:1;paint-order:normal"
           d="m 2.6739781,-157.50686 1.076523,1.05562 c 0,0 1.403278,-0.71184 1.403278,-0.64768 l -0.121557,0.58739 -1.403289,0.64766 c 0,0 -0.735119,-0.72075 -1.077049,-1.05607 0.04062,-0.19563 0.134678,-0.64885 0.122047,-0.58689 z" />
        <path
           style="fill:#3493be;fill-opacity:1;stroke:#08150e;stroke-width:0.360825;stroke-linecap:round;stroke-linejoin:round;stroke-miterlimit:3.5;stroke-dasharray:none;stroke-dashoffset:11.2252;stroke-opacity:1;paint-order:normal"
           d="m 4.0772911,-158.15467 1.076652,1.05592 -1.403348,0.6476 -1.072601,-1.07946 z"
           id="path51386-4-2-86-68" />
        <path
           id="path51355-02-0-4-6-77"
           style="fill:#1c485c;fill-opacity:1;stroke:#08150e;stroke-width:0.360825;stroke-linecap:round;stroke-linejoin:round;stroke-miterlimit:3.5;stroke-dasharray:none;stroke-dashoffset:11.2252;stroke-opacity:1;paint-order:normal"
           d="m 0.70439212,-156.56352 1.07652398,1.0556 c 0,0 1.40329,-0.71184 1.40329,-0.64766 l -0.121569,0.58738 -1.403278,0.64767 c 0,0 -0.73511898,-0.72076 -1.07704898,-1.05608 0.04062,-0.19564 0.134678,-0.64887 0.122047,-0.58689 z" />
        <path
           style="fill:#3493be;fill-opacity:1;stroke:#08150e;stroke-width:0.360825;stroke-linecap:round;stroke-linejoin:round;stroke-miterlimit:3.5;stroke-dasharray:none;stroke-dashoffset:11.2252;stroke-opacity:1;paint-order:normal"
           d="m 2.1077171,-157.21134 1.076652,1.05592 -1.403348,0.64758 -1.07260098,-1.07945 z"
           id="path51386-4-2-8-0-6" />
        <path
           id="path51355-02-0-2-0-65"
           style="fill:#1c485c;fill-opacity:1;stroke:#08150e;stroke-width:0.360825;stroke-linecap:round;stroke-linejoin:round;stroke-miterlimit:3.5;stroke-dasharray:none;stroke-dashoffset:11.2252;stroke-opacity:1;paint-order:normal"
           d="m -1.2598809,-155.63224 1.07652302,1.05561 c 0,0 1.40328998,-0.71183 1.40328998,-0.64766 l -0.121569,0.58738 -1.40327798,0.64767 c 0,0 -0.73513002,-0.72076 -1.07704902,-1.05609 0.04062,-0.19563 0.134678,-0.64885 0.122048,-0.58688 z" />
        <path
           style="fill:#3493be;fill-opacity:1;stroke:#08150e;stroke-width:0.360825;stroke-linecap:round;stroke-linejoin:round;stroke-miterlimit:3.5;stroke-dasharray:none;stroke-dashoffset:11.2252;stroke-opacity:1;paint-order:normal"
           d="m 0.14343112,-156.28004 1.07666398,1.0559 -1.40334798,0.64761 -1.07261302,-1.07946 z"
           id="path51386-4-2-2-9-3" />
        <path
           id="path51355-02-0-22-2-7"
           style="fill:#1c485c;fill-opacity:1;stroke:#08150e;stroke-width:0.360825;stroke-linecap:round;stroke-linejoin:round;stroke-miterlimit:3.5;stroke-dasharray:none;stroke-dashoffset:11.2252;stroke-opacity:1;paint-order:normal"
           d="m 4.1138761,-155.95385 1.076523,1.05562 c 0,0 1.40329,-0.71185 1.40329,-0.64766 l -0.121569,0.58737 -1.403278,0.64768 c 0,0 -0.73513,-0.72076 -1.07706,-1.0561 0.04062,-0.19562 0.134678,-0.64885 0.122059,-0.58687 z" />
        <path
           style="fill:#3493be;fill-opacity:1;stroke:#08150e;stroke-width:0.360825;stroke-linecap:round;stroke-linejoin:round;stroke-miterlimit:3.5;stroke-dasharray:none;stroke-dashoffset:11.2252;stroke-opacity:1;paint-order:normal"
           d="m 5.5171891,-156.60166 1.076652,1.05592 -1.403337,0.64759 -1.072613,-1.07944 z"
           id="path51386-4-2-86-6-6" />
        <path
           id="path51355-02-0-4-6-9-9"
           style="fill:#1c485c;fill-opacity:1;stroke:#08150e;stroke-width:0.360825;stroke-linecap:round;stroke-linejoin:round;stroke-miterlimit:3.5;stroke-dasharray:none;stroke-dashoffset:11.2252;stroke-opacity:1;paint-order:normal"
           d="m 2.1443021,-155.01052 1.076523,1.05561 c 0,0 1.403278,-0.71184 1.403278,-0.64767 l -0.121556,0.58739 -1.40329,0.64766 c 0,0 -0.735119,-0.72076 -1.077049,-1.05608 0.04062,-0.19563 0.134678,-0.64885 0.122047,-0.58689 z" />
        <path
           style="fill:#3493be;fill-opacity:1;stroke:#08150e;stroke-width:0.360825;stroke-linecap:round;stroke-linejoin:round;stroke-miterlimit:3.5;stroke-dasharray:none;stroke-dashoffset:11.2252;stroke-opacity:1;paint-order:normal"
           d="m 3.5476151,-155.65833 1.076652,1.05592 -1.403348,0.64759 -1.072601,-1.07945 z"
           id="path51386-4-2-8-0-4-7" />
        <path
           id="path51355-02-0-2-0-8-2"
           style="fill:#1c485c;fill-opacity:1;stroke:#08150e;stroke-width:0.360825;stroke-linecap:round;stroke-linejoin:round;stroke-miterlimit:3.5;stroke-dasharray:none;stroke-dashoffset:11.2252;stroke-opacity:1;paint-order:normal"
           d="m 0.18001612,-154.07923 1.07652398,1.05562 c 0,0 1.403289,-0.71184 1.403289,-0.64767 l -0.121568,0.58739 -1.403278,0.64766 c 0,0 -0.73512998,-0.72076 -1.07704898,-1.05609 0.04062,-0.19562 0.134678,-0.64885 0.122047,-0.58689 z" />
        <path
           style="fill:#3493be;fill-opacity:1;stroke:#08150e;stroke-width:0.360825;stroke-linecap:round;stroke-linejoin:round;stroke-miterlimit:3.5;stroke-dasharray:none;stroke-dashoffset:11.2252;stroke-opacity:1;paint-order:normal"
           d="m 1.5833411,-154.72704 1.076652,1.05592 -1.403348,0.64759 -1.07261298,-1.07945 z"
           id="path51386-4-2-2-9-2-6" />
        <path
           id="path51355-02-0-22-8-4"
           style="fill:#1c485c;fill-opacity:1;stroke:#08150e;stroke-width:0.360825;stroke-linecap:round;stroke-linejoin:round;stroke-miterlimit:3.5;stroke-dasharray:none;stroke-dashoffset:11.2252;stroke-opacity:1;paint-order:normal"
           d="m 5.6194721,-154.41326 1.076524,1.05562 c 0,0 1.403289,-0.71184 1.403289,-0.64767 l -0.121568,0.58738 -1.403278,0.64767 c 0,0 -0.735119,-0.72076 -1.077049,-1.05608 0.04062,-0.19563 0.134678,-0.64886 0.122047,-0.58689 z" />
        <path
           style="fill:#3493be;fill-opacity:1;stroke:#08150e;stroke-width:0.360825;stroke-linecap:round;stroke-linejoin:round;stroke-miterlimit:3.5;stroke-dasharray:none;stroke-dashoffset:11.2252;stroke-opacity:1;paint-order:normal"
           d="m 7.0227971,-155.06107 1.076652,1.05592 -1.403348,0.64759 -1.072601,-1.07945 z"
           id="path51386-4-2-86-2-0" />
        <path
           id="path51355-02-0-4-6-7-7"
           style="fill:#1c485c;fill-opacity:1;stroke:#08150e;stroke-width:0.360825;stroke-linecap:round;stroke-linejoin:round;stroke-miterlimit:3.5;stroke-dasharray:none;stroke-dashoffset:11.2252;stroke-opacity:1;paint-order:normal"
           d="m 3.6498991,-153.46994 1.076523,1.05562 c 0,0 1.40329,-0.71183 1.40329,-0.64766 l -0.121569,0.58737 -1.403278,0.64768 c 0,0 -0.73513,-0.72076 -1.077048,-1.05609 0.04062,-0.19563 0.134677,-0.64886 0.122047,-0.58688 z" />
        <path
           style="fill:#3493be;fill-opacity:1;stroke:#08150e;stroke-width:0.360825;stroke-linecap:round;stroke-linejoin:round;stroke-miterlimit:3.5;stroke-dasharray:none;stroke-dashoffset:11.2252;stroke-opacity:1;paint-order:normal"
           d="m 5.0532231,-154.11774 1.076652,1.05592 -1.403348,0.64759 -1.072613,-1.07945 z"
           id="path51386-4-2-8-0-8-5" />
        <path
           id="path51355-02-0-2-0-6-4"
           style="fill:#1c485c;fill-opacity:1;stroke:#08150e;stroke-width:0.360825;stroke-linecap:round;stroke-linejoin:round;stroke-miterlimit:3.5;stroke-dasharray:none;stroke-dashoffset:11.2252;stroke-opacity:1;paint-order:normal"
           d="m 1.6856251,-152.53865 1.076523,1.05562 c 0,0 1.40329,-0.71183 1.40329,-0.64766 l -0.121569,0.58738 -1.403278,0.64767 c 0,0 -0.73513,-0.72076 -1.077048,-1.0561 0.04062,-0.19562 0.134666,-0.64885 0.122047,-0.58687 z" />
        <path
           style="fill:#3493be;fill-opacity:1;stroke:#08150e;stroke-width:0.360825;stroke-linecap:round;stroke-linejoin:round;stroke-miterlimit:3.5;stroke-dasharray:none;stroke-dashoffset:11.2252;stroke-opacity:1;paint-order:normal"
           d="m 3.0889381,-153.18645 1.076663,1.05591 -1.403348,0.6476 -1.072613,-1.07945 z"
           id="path51386-4-2-2-9-7-0" />
        <path
           id="path51355-02-0-22-7-1"
           style="fill:#1c485c;fill-opacity:1;stroke:#08150e;stroke-width:0.360825;stroke-linecap:round;stroke-linejoin:round;stroke-miterlimit:3.5;stroke-dasharray:none;stroke-dashoffset:11.2252;stroke-opacity:1;paint-order:normal"
           d="m 7.1274391,-152.8574 1.076523,1.05561 c 0,0 1.403278,-0.71183 1.403278,-0.64766 l -0.121557,0.58738 -1.403289,0.64767 c 0,0 -0.735119,-0.72076 -1.077049,-1.05609 0.04062,-0.19563 0.134678,-0.64885 0.122047,-0.58688 z" />
        <path
           style="fill:#3493be;fill-opacity:1;stroke:#08150e;stroke-width:0.360825;stroke-linecap:round;stroke-linejoin:round;stroke-miterlimit:3.5;stroke-dasharray:none;stroke-dashoffset:11.2252;stroke-opacity:1;paint-order:normal"
           d="m 8.5307521,-153.50521 1.076651,1.05591 -1.403347,0.6476 -1.072602,-1.07945 z"
           id="path51386-4-2-86-0-2" />
        <path
           id="path51355-02-0-4-6-94-8"
           style="fill:#1c485c;fill-opacity:1;stroke:#08150e;stroke-width:0.360825;stroke-linecap:round;stroke-linejoin:round;stroke-miterlimit:3.5;stroke-dasharray:none;stroke-dashoffset:11.2252;stroke-opacity:1;paint-order:normal"
           d="m 5.1578531,-151.91408 1.076524,1.05562 c 0,0 1.403289,-0.71184 1.403289,-0.64766 l -0.121568,0.58738 -1.403278,0.64767 c 0,0 -0.735119,-0.72076 -1.077049,-1.0561 0.04062,-0.19562 0.134678,-0.64885 0.122047,-0.58687 z" />
        <path
           style="fill:#3493be;fill-opacity:1;stroke:#08150e;stroke-width:0.360825;stroke-linecap:round;stroke-linejoin:round;stroke-miterlimit:3.5;stroke-dasharray:none;stroke-dashoffset:11.2252;stroke-opacity:1;paint-order:normal"
           d="m 6.5611781,-152.56189 1.076652,1.05592 -1.403348,0.64759 -1.072601,-1.07944 z"
           id="path51386-4-2-8-0-5-0" />
        <path
           id="path51355-02-0-2-0-4-1"
           style="fill:#1c485c;fill-opacity:1;stroke:#08150e;stroke-width:0.360825;stroke-linecap:round;stroke-linejoin:round;stroke-miterlimit:3.5;stroke-dasharray:none;stroke-dashoffset:11.2252;stroke-opacity:1;paint-order:normal"
           d="m 3.1935791,-150.98278 1.076524,1.05561 c 0,0 1.403289,-0.71184 1.403289,-0.64767 l -0.121568,0.58739 -1.403278,0.64766 c 0,0 -0.73513,-0.72075 -1.077049,-1.05608 0.04062,-0.19563 0.134678,-0.64885 0.122047,-0.58689 z" />
        <path
           style="fill:#3493be;fill-opacity:1;stroke:#08150e;stroke-width:0.360825;stroke-linecap:round;stroke-linejoin:round;stroke-miterlimit:3.5;stroke-dasharray:none;stroke-dashoffset:11.2252;stroke-opacity:1;paint-order:normal"
           d="m 4.5968921,-151.6306 1.076664,1.05592 -1.403348,0.64759 -1.072613,-1.07944 z"
           id="path51386-4-2-2-9-22-5" />
        <path
           style="fill:#5c1947;fill-opacity:1;stroke:#08150e;stroke-width:0.360825;stroke-linecap:round;stroke-linejoin:round;stroke-miterlimit:3.5;stroke-dasharray:none;stroke-dashoffset:11.2252;stroke-opacity:1;paint-order:normal"
           d="m 4.2542031,-164.43254 2.067772,0.79729 2.034479,1.32108 0.560505,1.26404 -2.583614,-2.32777 z"
           id="path52102-1-2" />
      </g>
    </g>
  </g>
</svg>
