<?xml version="1.0" encoding="UTF-8" standalone="no"?>
<!-- Created with Inkscape (http://www.inkscape.org/) -->

<svg
   width="31.4mm"
   height="31.4mm"
   viewBox="0 0 31.399999 31.399999"
   version="1.1"
   id="svg94230"
   xmlns="http://www.w3.org/2000/svg"
   xmlns:svg="http://www.w3.org/2000/svg">
  <defs
     id="defs94227" />
  <g
     id="layer1"
     transform="translate(0.69999999,0.69999999)">
    <path
       style="fill:none;fill-opacity:1;stroke:#08150e;stroke-width:1.4;stroke-linecap:round;stroke-linejoin:round;stroke-miterlimit:3.5;stroke-dasharray:none;stroke-dashoffset:11.2252;stroke-opacity:1;paint-order:normal"
       d="m 9.0047198,2.8399448 v 2.394 l -4.32794,1.79322 -2.05873,4.9687402 2.05873,4.96938 4.32794,1.79268 v 5.91308 H 19.78714 l 2.48901,2.48901 2.48901,-2.48901 h 2.61679 V 7.9071148 l -5.06717,-5.06717 z"
       id="path44255" />
    <path
       style="fill:none;fill-opacity:1;stroke:#13261c;stroke-width:1.4;stroke-linecap:round;stroke-linejoin:round;stroke-miterlimit:3.5;stroke-dasharray:none;stroke-dashoffset:11.2252;stroke-opacity:1;paint-order:normal"
       d="m 3.7190798,11.995905 1.73638,4.1907 2.10591,0.87237 -0.47956,-0.49822 -0.64095,-4.7312 0.64095,-4.2967702 0.62729,-0.66115 -2.25364,0.93358 z"
       id="path45442" />
    <path
       id="rect41529-0"
       style="fill:#f2faf6;stroke:#08150e;stroke-width:0.3;stroke-linecap:round;stroke-linejoin:round;stroke-miterlimit:3.5;stroke-dashoffset:11.2252;paint-order:normal"
       d="M 9.0047198,2.8399448 H 22.31478 l 5.06717,5.06717 V 24.671045 H 9.0047198 Z" />
    <path
       id="rect42374-7"
       style="fill:#599275;fill-opacity:1;stroke:#08150e;stroke-width:0.3;stroke-linecap:round;stroke-linejoin:round;stroke-miterlimit:3.5;stroke-dashoffset:11.2252;paint-order:normal"
       d="m 22.31478,2.8399448 5.06717,5.06717 h -5.06717 z" />
    <path
       style="fill:#a3c8b5;fill-opacity:1;stroke:#13261c;stroke-width:0.3;stroke-linecap:round;stroke-linejoin:round;stroke-miterlimit:3.5;stroke-dasharray:none;stroke-dashoffset:11.2252;stroke-opacity:1;paint-order:normal"
       d="m 9.0047198,5.5060648 -1.92291,2.02672 -0.64095,4.2967702 0.64095,4.7312 1.92291,1.99785 4.9842802,-2.2193 1.90907,-4.20626 -1.78196,-4.8628202 z"
       id="path42746-4" />
    <path
       style="fill:none;fill-opacity:1;stroke:#08150e;stroke-width:0.3;stroke-linecap:round;stroke-linejoin:round;stroke-miterlimit:3.5;stroke-dasharray:none;stroke-dashoffset:11.2252;stroke-opacity:1;paint-order:normal"
       d="m 11.74088,6.9373448 0.98132,-2.57939 1.89262,1.01557 c 0,0 1.50232,1.90415 1.78026,1.7288 0.27793,-0.17536 0.27793,-2.1339 0.27793,-2.1339 l 2.12667,2.3018 0.9126,-1.8967 1.02694,1.0161"
       id="path42421-5" />
    <path
       style="fill:none;fill-opacity:1;stroke:#08150e;stroke-width:0.3;stroke-linecap:round;stroke-linejoin:round;stroke-miterlimit:3.5;stroke-dasharray:none;stroke-dashoffset:11.2252;stroke-opacity:1;paint-order:normal"
       d="M 24.80973,10.884995 24.07684,9.6198648 21.16411,10.001235 20.1301,8.9514948 18.75252,10.009335 15.32443,8.7401348 l -0.53768,0.22272 -2.78176,0.66498 -0.52284,-1.20144 c 0,0 -0.81867,0.38905 -1.43979,0.71066 -0.2887602,0.14951 -0.5348202,0.28444 -0.6360802,0.35895 l 0.0947,0.6422302 1.8089802,-1.1761602 0.57875,0.86594 2.93195,-0.85005"
       id="path42423-3" />
    <path
       style="fill:#13261c;fill-opacity:1;stroke:#13261c;stroke-width:0.3;stroke-linecap:round;stroke-linejoin:round;stroke-miterlimit:3.5;stroke-dasharray:none;stroke-dashoffset:11.2252;stroke-opacity:1;paint-order:normal"
       d="m 12.00499,9.6278348 -0.52284,-1.20144 c 0,0 -0.81867,0.38905 -1.43979,0.71066 -0.2887602,0.14951 -0.5348202,0.28444 -0.6360802,0.35895 l 0.0947,0.6422302 1.8089802,-1.1761602 0.57875,0.86594 2.89814,-0.86516 z"
       id="path42423-7-0" />
    <path
       style="fill:none;fill-opacity:1;stroke:#08150e;stroke-width:0.3;stroke-linecap:round;stroke-linejoin:round;stroke-miterlimit:3.5;stroke-dasharray:none;stroke-dashoffset:11.2252;stroke-opacity:1;paint-order:normal"
       d="m 10.64634,12.345485 c 0,-0.34958 2.07586,-0.34958 2.07586,-0.34958 v 1.99576 l 1.89262,-2.32615 1.28326,0.91299 1.65429,1.17699 2.15991,-1.75959 2.42661,0.72888 1.49226,0.49287 -0.057,-1.22175"
       id="path42425-7" />
    <path
       style="fill:none;fill-opacity:1;stroke:#08150e;stroke-width:0.3;stroke-linecap:round;stroke-linejoin:round;stroke-miterlimit:3.5;stroke-dasharray:none;stroke-dashoffset:11.2252;stroke-opacity:1;paint-order:normal"
       d="m 11.74088,19.858575 1.08248,-2.15132 4.32505,2.50521 1.62366,-1.62367 2.24385,0.4346 2.32853,-1.73777 1.21478,1.4287"
       id="path42427-2" />
    <path
       id="rect42314-9"
       style="fill:#a3c8b5;fill-opacity:1;stroke:#08150e;stroke-width:0.3;stroke-linecap:round;stroke-linejoin:round;stroke-miterlimit:3.5;stroke-dashoffset:11.2252;paint-order:normal"
       d="m 12.7222,17.606115 2.53359,-2.53359 1.89262,1.89262 -2.53359,2.53359 z" />
    <path
       style="fill:#13261c;fill-opacity:1;stroke:#13261c;stroke-width:0.3;stroke-linecap:round;stroke-linejoin:round;stroke-miterlimit:3.5;stroke-dasharray:none;stroke-dashoffset:11.2252;stroke-opacity:1;paint-order:normal"
       d="m 15.89807,12.578505 -1.28325,-0.91299 -1.89262,2.32615 -0.004,-1.99576 H 9.6464198 l -0.76464,1.32024 0.52539,0.43935 1.0961402,-1.11711 1.7599,-0.26191 0.3643,2.15367 1.9882,-2.53424 z"
       id="path42744-9" />
    <path
       id="path42256-3"
       style="fill:#599275;fill-opacity:1;stroke:#08150e;stroke-width:0.3;stroke-linecap:round;stroke-linejoin:round;stroke-miterlimit:3.5;stroke-dashoffset:11.2252;paint-order:normal"
       d="m 9.6455298,4.9684248 -4.96875,2.05874 -2.05873,4.9687402 2.05873,4.96938 4.96875,2.05811 4.9693702,-2.05811 2.05811,-4.96938 -2.05811,-4.9687402 z m 0,1.10104 4.1906902,1.73575 1.73574,4.1906902 -1.73574,4.1907 -4.1906902,1.73575 -4.19007,-1.73575 -1.73638,-4.1907 1.73638,-4.1906902 z" />
    <path
       id="rect42314-4-0"
       style="fill:#3493be;fill-opacity:1;stroke:#08150e;stroke-width:0.3;stroke-linecap:round;stroke-linejoin:round;stroke-miterlimit:3.5;stroke-dashoffset:11.2252;paint-order:normal"
       d="m 14.61482,19.498735 2.53359,-2.53359 7.66132,7.66132 -2.53358,2.53359 z" />
  </g>
</svg>
