<?xml version="1.0" encoding="UTF-8" standalone="no"?>
<!-- Created with Inkscape (http://www.inkscape.org/) -->

<svg
   width="31.4mm"
   height="31.4mm"
   viewBox="0 0 31.399999 31.399999"
   version="1.1"
   id="svg94230"
   xmlns="http://www.w3.org/2000/svg"
   xmlns:svg="http://www.w3.org/2000/svg">
  <defs
     id="defs94227" />
  <path
     style="fill:#b93390;fill-opacity:1;stroke:none;stroke-width:1.4;stroke-linecap:round;stroke-linejoin:round;stroke-miterlimit:3.5;stroke-dasharray:none;stroke-dashoffset:11.2252;stroke-opacity:1;paint-order:normal"
     d="m 29.69383,22.187223 v 6.664373 H 1.7061691 V 22.233094 H 4.083418 v 4.049164 H 27.31658 v -4.095035 z"
     id="path44255-1" />
  <path
     style="fill:#92bc34;fill-opacity:1;stroke:none;stroke-width:1.9;stroke-linecap:round;stroke-linejoin:round;stroke-opacity:1;paint-order:stroke fill markers"
     d="M 10.504102,4.5174768 8.4407428,12.225489 h 3.3253092 c 3.539664,0 3.75327,3.106916 3.75327,3.106916 v 0.642334 h -3.849764 l 7.044741,7.053134 7.045369,-7.053134 h -3.948139 v -4.39033 c 0,-3.7479993 -1.380313,-7.0669322 -6.417525,-7.0669322 z"
     id="path2" />
  <path
     style="fill:#475c19;fill-opacity:1;stroke:none;stroke-width:1.9;stroke-linecap:round;stroke-linejoin:round;stroke-opacity:1;paint-order:stroke fill markers"
     d="M 4.9011403,4.5174768 2.8202378,12.225489 H 5.7733525 L 7.8360849,4.5174768 Z"
     id="path1-5" />
  <path
     style="fill:none;fill-opacity:1;stroke:#08150e;stroke-width:0.999996;stroke-linecap:round;stroke-linejoin:round;stroke-miterlimit:3.5;stroke-dasharray:none;stroke-dashoffset:11.2252;stroke-opacity:1;paint-order:normal"
     d="m 29.69383,22.187223 v 6.664373 H 1.7061689 v -6.618502 h 2.3772497 v 4.049164 H 27.31658 v -4.095035 z"
     id="path44255" />
  <path
     id="path1"
     style="fill:none;fill-opacity:1;stroke:#08150e;stroke-width:1;stroke-linecap:round;stroke-linejoin:round;stroke-dasharray:none;stroke-opacity:1;paint-order:stroke fill markers"
     d="M 4.9011405,4.5174769 2.820238,12.225489 H 5.7733527 L 7.8360841,4.5174769 Z m 5.6029615,0 -2.0633593,7.7080121 h 3.3253093 c 3.539664,0 3.75327,3.106916 3.75327,3.106916 v 0.642334 h -3.849764 l 7.044741,7.053134 7.045369,-7.053134 h -3.948139 v -4.39033 c 0,-3.7479991 -1.380313,-7.0669321 -6.417525,-7.0669321 z" />
</svg>
