<?xml version="1.0" encoding="UTF-8" standalone="no"?>
<!-- Created with Inkscape (http://www.inkscape.org/) -->

<svg
   width="31.4mm"
   height="31.4mm"
   viewBox="0 0 31.399999 31.399999"
   version="1.1"
   id="svg94230"
   xml:space="preserve"
   xmlns="http://www.w3.org/2000/svg"
   xmlns:svg="http://www.w3.org/2000/svg"><defs
     id="defs94227" /><path
     id="path1-0"
     style="fill:#3493be;fill-opacity:1;stroke:#08150e;stroke-width:1.9;stroke-linecap:round;stroke-linejoin:round;stroke-dasharray:none;stroke-opacity:1;paint-order:stroke fill markers"
     d="m 15.788306,2.6106057 c -2.878007,0.017433 -5.755847,0.5870742 -5.755847,1.6563216 v 4.3196414 h 8.38682 v 0.469774 l -11.2034821,0.0133 C 5.12286,9.0721701 4.084588,9.9920899 3.7551653,11.956211 c -0.3775406,2.251012 -0.30732,5.071456 0,6.982487 0.1628141,1.012443 0.9659753,2.013995 3.0123218,2.013995 h 2.7435254 v -2.649544 c 0,-2.440673 1.1951275,-3.254218 3.0422415,-3.254218 h 5.514596 c 2.390385,0 3.476778,-1.046222 3.476778,-3.068495 V 4.2669273 c 0,-1.138981 -2.878315,-1.673755 -5.756322,-1.6563216 z M 13.038607,4.0308528 A 1.4408738,1.4411594 0 0 1 14.479468,5.4719999 1.4408738,1.4411594 0 0 1 13.038607,6.913147 1.4408738,1.4411594 0 0 1 11.597745,5.4719999 1.4408738,1.4411594 0 0 1 13.038607,4.0308528 Z" /><path
     id="path1-9-6"
     style="fill:#92bc34;fill-opacity:1;stroke:#08150e;stroke-width:1.9;stroke-linecap:round;stroke-linejoin:round;stroke-dasharray:none;stroke-opacity:1;paint-order:stroke fill markers"
     d="m 16.33047,28.644565 c 2.878007,-0.01744 5.755847,-0.587074 5.755847,-1.656321 v -4.319642 h -8.38682 v -0.469774 l 11.203482,-0.0133 c 2.092937,-0.0026 3.131209,-0.922446 3.460632,-2.886568 0.37754,-2.251012 0.30732,-5.071456 0,-6.982486 -0.162814,-1.012442 -0.965975,-2.013995 -3.012322,-2.013995 h -2.743525 v 2.649544 c 0,2.440673 -1.195128,3.254219 -3.042242,3.254219 h -5.514596 c -2.390385,0 -3.476778,1.046221 -3.476778,3.068494 v 7.713509 c 0,1.13898 2.878315,1.673754 5.756322,1.65632 z m 2.749699,-1.420248 a 1.4408738,1.4411594 0 0 1 -1.440861,-1.441146 1.4408738,1.4411594 0 0 1 1.440861,-1.441147 1.4408738,1.4411594 0 0 1 1.440862,1.441147 1.4408738,1.4411594 0 0 1 -1.440862,1.441146 z" /><path
     id="path1"
     style="fill:#3493be;fill-opacity:1;stroke:none;stroke-width:0.3;stroke-linecap:round;stroke-linejoin:round;stroke-dasharray:none;stroke-opacity:1;paint-order:stroke fill markers"
     d="m 15.788306,2.6106054 c -2.878007,0.017433 -5.755847,0.5870742 -5.755847,1.6563216 v 4.3196414 h 8.38682 v 0.469774 l -11.2034815,0.0133 C 5.1228603,9.0721734 4.084588,9.99209 3.7551653,11.956211 c -0.3775403,2.251012 -0.3073196,5.071456 0,6.982487 0.1628144,1.012443 0.9659752,2.013995 3.0123219,2.013995 H 9.511013 v -2.649544 c 0,-2.440673 1.195127,-3.254218 3.042241,-3.254218 h 5.514596 c 2.390385,0 3.476778,-1.046222 3.476778,-3.068495 V 4.266927 c 0,-1.1389809 -2.878315,-1.673755 -5.756322,-1.6563216 z m -2.749699,1.4202471 a 1.4408738,1.4411594 0 0 1 1.440861,1.4411471 1.4408738,1.4411594 0 0 1 -1.440861,1.4411472 1.4408738,1.4411594 0 0 1 -1.440862,-1.4411472 1.4408738,1.4411594 0 0 1 1.440862,-1.4411471 z" /><path
     id="path1-9"
     style="fill:#92bc34;fill-opacity:1;stroke:none;stroke-width:0.3;stroke-linecap:round;stroke-linejoin:round;stroke-dasharray:none;stroke-opacity:1;paint-order:stroke fill markers"
     d="m 16.33047,28.644565 c 2.878007,-0.01744 5.755847,-0.587074 5.755847,-1.656321 v -4.319642 h -8.38682 v -0.469774 l 11.203482,-0.0133 c 2.092937,-0.0026 3.131209,-0.922446 3.460632,-2.886568 0.37754,-2.251012 0.30732,-5.071456 0,-6.982486 -0.162814,-1.012442 -0.965975,-2.013995 -3.012322,-2.013995 h -2.743525 v 2.649544 c 0,2.440673 -1.195128,3.254219 -3.042242,3.254219 h -5.514596 c -2.390385,0 -3.476778,1.046221 -3.476778,3.068494 v 7.713509 c 0,1.13898 2.878315,1.673754 5.756322,1.65632 z m 2.749699,-1.420248 a 1.4408738,1.4411594 0 0 1 -1.440861,-1.441146 1.4408738,1.4411594 0 0 1 1.440861,-1.441147 1.4408738,1.4411594 0 0 1 1.440862,1.441147 1.4408738,1.4411594 0 0 1 -1.440862,1.441146 z" /></svg>
