<svg width="auto" height="100%" viewBox="0 0 23.64 23.64" xmlns="http://www.w3.org/2000/svg">
  <g color="#000" paint-order="stroke fill markers">
    <path d="M14.25 2.33v1l5.78 2.13-5.78 2.14v.99l7.48 2.82v-1l-5.8-2.13 5.8-2.14v-1zm-5.1 2.35c-1.02 0-2.05.22-3.1.66l.5.94a7.5 7.5 0 0 1 2.66-.56c1.32 0 1.97.54 1.97 1.61v.48l-1.64.04c-2.75.08-4.13.87-4.13 2.4 0 .7.25 1.25.75 1.64.5.4 1.19.6 2.07.6.69 0 1.25-.1 1.7-.26.43-.18.85-.48 1.27-.93h.06l.3 1.04h1.06V7.2c0-.88-.27-1.52-.82-1.91-.55-.4-1.43-.6-2.66-.6zm2.02 3.98v.68c0 .68-.24 1.2-.71 1.58-.47.37-1.1.55-1.9.55-1.08 0-1.62-.4-1.62-1.22 0-.5.22-.87.67-1.11.44-.25 1.19-.4 2.25-.43zm3.15 1.85v10.8h1.47v-4.03c0-1.82.83-2.73 2.49-2.73 1.28 0 1.92.6 1.92 1.78v4.98h1.48V16.1l-.01-.14c-.12-1.62-1.16-2.44-3.14-2.44-1.26 0-2.17.39-2.72 1.15h-.08l.06-.98V10.5zm-4.83 3c-1.06 0-1.9.18-2.5.54-.6.35-.9.84-.9 1.46 0 .45.16.84.49 1.18.33.33 1.12.69 2.38 1.09.95.29 1.56.53 1.83.72.26.2.4.42.4.68a1 1 0 0 1-.04.24v.04l-.02.03v.03l-.02.02-.01.03-.02.03-.01.03-.02.03-.01.02a.93.93 0 0 1-.04.05l-.02.02a.62.62 0 0 1-.07.07l-.03.03-.02.02-.04.02a1.3 1.3 0 0 1-.05.04l-.04.03h-.02l-.04.03-.02.01-.05.03h-.02a1.62 1.62 0 0 1-.12.05l-.03.02-.04.01-.05.02h-.03l-.09.03-.09.02h-.02l-.07.02H10l-.07.02H9.9l-.08.02h-.1l-.03.01-.08.01h-.04l-.08.01h-.03a2.44 2.44 0 0 1-.24.01 7.56 7.56 0 0 1-.44 0h-.3l-.08-.01a8.85 8.85 0 0 1-2.45-.57v1.14l.39.15.06.02.06.02h.04l.04.02.06.02.1.02.15.03h.02a6.55 6.55 0 0 0 .31.07h.07l.12.02.07.01.12.02h.1l.16.02h.05l.15.02h.08l.13.01h.08l.14.01h.3a25.33 25.33 0 0 0 .45 0l.41-.01a6.98 6.98 0 0 0 .66-.08 4.3 4.3 0 0 0 1.45-.52c.6-.39.9-.92.9-1.58a1.64 1.64 0 0 0-.01-.15 1.6 1.6 0 0 0-.56-1.1 6.42 6.42 0 0 0-2.27-1.04c-.98-.3-1.61-.53-1.89-.7a.74.74 0 0 1-.4-.66c0-.61.64-.92 1.91-.92.74 0 1.6.17 2.58.5l.49-1.02a8.61 8.61 0 0 0-2.99-.51zm-6.35 5.53c-.82 0-1.23.38-1.23 1.14 0 .75.41 1.13 1.23 1.13.82 0 1.23-.38 1.23-1.13 0-.76-.41-1.14-1.23-1.14z" fill="none" stroke="#08150e" stroke-width="1.4" stroke-linejoin="round"/>
    <path d="m14.25 7.6 5.78-2.14-5.78-2.13v-1l7.48 2.81-7.48 3.45z" fill="#195c2c"/>
    <path d="m11.56 12.35-.3-1.05h-.06q-.62.67-1.28.93-.65.25-1.7.25-1.31 0-2.06-.59t-.75-1.65q0-2.28 4.13-2.39l1.64-.04v-.48q0-1.61-1.97-1.61-1.2 0-2.66.56l-.5-.94q1.58-.66 3.1-.66 1.83 0 2.65.6.82.6.82 1.91v5.16zm-.4-3.69-1.3.05q-1.59.06-2.25.43-.67.36-.67 1.11 0 1.22 1.62 1.22 1.2 0 1.9-.55.7-.56.7-1.58z" fill="#b93390"/>
    <path d="m21.73 11.4-7.48-2.8v-.64l7.48-2.82v1l-5.8 2.14 5.8 2.13z" fill="#34bc5d"/>
    <path d="M5.96 20.84V19.7q1.57.6 3 .6 2.22 0 2.22-1.12 0-.39-.4-.68-.39-.29-1.82-.72-1.89-.6-2.38-1.1-.49-.5-.49-1.17 0-.94.9-1.46.9-.54 2.5-.54t2.99.51l-.49 1.02q-1.47-.5-2.58-.5-1.9 0-1.9.92 0 .42.4.67.4.25 1.88.7 1.7.52 2.27 1.04.56.5.56 1.24 0 1.03-.94 1.62-.95.58-2.68.58-2 0-3.04-.47z" fill="#3493be"/>
    <path d="M3.14 19.04q1.23 0 1.23 1.14 0 1.13-1.23 1.13T1.9 20.18q0-1.14 1.23-1.14z" fill="#5d33b9"/>
    <path d="M20.2 21.31v-4.98c0-1.19-.64-1.78-1.92-1.78-1.66 0-2.49.9-2.49 2.73v4.03h-1.47v-10.8h1.47v3.17l-.06.98h.08c.55-.76 1.46-1.15 2.72-1.15 2.1 0 3.15.92 3.15 2.75v5.05z" fill="#92bc34"/>
    <path d="m12.61 18.9-1.44.47c-.12.61-.86.92-2.21.92-.18 0-.36 0-.55-.02l-2.12.7c.66.23 1.57.34 2.7.34 1.16 0 2.06-.2 2.69-.58a1.82 1.82 0 0 0 .93-1.84z" fill="#1c485c"/>
    <path d="m21.66 15.92-1.46.48v4.91h1.48v-5.05c0-.12 0-.23-.02-.34zm-5.87 1.93-1.47.48v2.98h1.47z" fill="#475c19"/>
  </g>
</svg>