<?xml version="1.0" encoding="UTF-8" standalone="no"?>
<!-- Created with Inkscape (http://www.inkscape.org/) -->

<svg
   width="31.4mm"
   height="31.4mm"
   viewBox="0 0 31.399999 31.399999"
   version="1.1"
   id="svg94230"
   xmlns="http://www.w3.org/2000/svg"
   xmlns:svg="http://www.w3.org/2000/svg">
  <defs
     id="defs94227" />
  <g
     id="layer1"
     transform="translate(0.69999999,0.69999999)">
    <g
       id="g26794"
       transform="translate(-270.38576,-49.796111)">
      <path
         style="fill:none;fill-opacity:1;stroke:#08150e;stroke-width:1.4;stroke-linejoin:round;stroke-miterlimit:3.5;stroke-dasharray:none;stroke-dashoffset:11.2252;stroke-opacity:1;paint-order:stroke fill markers"
         d="m 273.28122,54.859345 8.2903,-2.221382 15.91877,4.265422 -4.41939,18.78618 -5.7413,3.31474 -11.65964,-6.7317 z"
         id="path17067-3" />
      <path
         style="fill:#2d503f;fill-opacity:1;stroke:#08150e;stroke-width:0.3;stroke-linejoin:round;stroke-miterlimit:3.5;stroke-dasharray:none;stroke-dashoffset:11.2252;stroke-opacity:1;paint-order:normal"
         d="m 281.57152,52.637962 0.11796,17.815457 11.38142,5.236146 4.41939,-18.786181 z"
         id="path17150-1" />
      <path
         style="fill:#13261c;fill-opacity:1;stroke:#08150e;stroke-width:0.3;stroke-linejoin:round;stroke-miterlimit:3.5;stroke-dasharray:none;stroke-dashoffset:11.2252;stroke-opacity:1;paint-order:normal"
         d="m 281.68948,70.453419 -6.01952,1.819185 -2.38874,-17.413259 8.2903,-2.221383 z"
         id="path17152-5" />
      <path
         style="fill:#f2faf6;fill-opacity:1;stroke:#08150e;stroke-width:0.3;stroke-linejoin:round;stroke-miterlimit:3.5;stroke-dasharray:none;stroke-dashoffset:11.2252;stroke-opacity:1;paint-order:normal"
         d="m 279.96338,53.777606 1.09045,-3.189692 4.66853,0.510558 -0.0636,2.975081 z"
         id="path26854" />
      <path
         style="fill:#f2faf6;fill-opacity:1;stroke:#08150e;stroke-width:0.3;stroke-linejoin:round;stroke-miterlimit:3.5;stroke-dasharray:none;stroke-dashoffset:11.2252;stroke-opacity:1;paint-order:normal"
         d="m 276.58871,57.13952 -1.82822,-3.47208 5.52532,-2.10335 2.84245,3.152585 z"
         id="path26856" />
      <path
         style="fill:#a3c8b5;fill-opacity:1;stroke:#08150e;stroke-width:0.3;stroke-linejoin:round;stroke-miterlimit:3.5;stroke-dasharray:none;stroke-dashoffset:11.2252;stroke-opacity:1;paint-order:normal"
         d="m 278.34114,57.72891 -0.16849,-3.504348 5.16917,-0.302774 0.8895,4.391618 z"
         id="path26858" />
      <path
         style="fill:#a3c8b5;fill-opacity:1;stroke:#08150e;stroke-width:0.3;stroke-linejoin:round;stroke-miterlimit:3.5;stroke-dasharray:none;stroke-dashoffset:11.2252;stroke-opacity:1;paint-order:normal"
         d="m 288.61184,51.576329 -5.37795,0.575028 2.83572,4.306153 3.83133,-3.045131 z"
         id="path26860" />
      <path
         style="fill:#f2faf6;fill-opacity:1;stroke:#08150e;stroke-width:0.3;stroke-linejoin:round;stroke-miterlimit:3.5;stroke-dasharray:none;stroke-dashoffset:11.2252;stroke-opacity:1;paint-order:normal"
         d="m 286.68119,55.075094 -1.09845,-1.981541 -3.56822,0.02363 0.91855,3.507954 z"
         id="path26862" />
      <path
         style="fill:#f2faf6;fill-opacity:1;stroke:#08150e;stroke-width:0.3;stroke-linejoin:round;stroke-miterlimit:3.5;stroke-dasharray:none;stroke-dashoffset:11.2252;stroke-opacity:1;paint-order:normal"
         d="m 287.00623,54.169872 1.87269,-1.890942 3.93176,2.128735 -0.99691,3.97765 z"
         id="path26864" />
      <path
         style="fill:#f2faf6;fill-opacity:1;stroke:#08150e;stroke-width:0.3;stroke-linejoin:round;stroke-miterlimit:3.5;stroke-dasharray:none;stroke-dashoffset:11.2252;stroke-opacity:1;paint-order:normal"
         d="m 291.29689,58.842729 -1.29032,-2.868835 3.88355,-2.413185 1.7448,3.691731 z"
         id="path26866" />
      <path
         style="fill:#a3c8b5;fill-opacity:1;stroke:#08150e;stroke-width:0.3;stroke-linejoin:round;stroke-miterlimit:3.5;stroke-dasharray:none;stroke-dashoffset:11.2252;stroke-opacity:1;paint-order:normal"
         d="m 293.17837,61.050954 -0.94338,-4.593444 4.05485,0.485397 -1.22399,4.108047 z"
         id="path26868" />
      <path
         style="fill:#f2faf6;fill-opacity:1;stroke:#08150e;stroke-width:0.3;stroke-linejoin:round;stroke-miterlimit:3.5;stroke-dasharray:none;stroke-dashoffset:11.2252;stroke-opacity:1;paint-order:normal"
         d="m 281.43817,59.215863 4.22061,-5.14231 4.34779,1.900341 -2.91807,5.409956 z"
         id="path26852" />
      <path
         style="fill:#f2faf6;fill-opacity:1;stroke:#08150e;stroke-width:0.3;stroke-linejoin:round;stroke-miterlimit:3.5;stroke-dasharray:none;stroke-dashoffset:11.2252;stroke-opacity:1;paint-order:normal"
         d="m 287.3673,56.117592 5.27854,-0.287396 0.30988,4.138097 -4.43042,1.886971 z"
         id="path26850" />
      <path
         style="fill:#a3c8b5;fill-opacity:1;stroke:#08150e;stroke-width:0.3;stroke-linejoin:round;stroke-miterlimit:3.5;stroke-dasharray:none;stroke-dashoffset:11.2252;stroke-opacity:1;paint-order:normal"
         d="m 287.3296,79.004305 -11.65964,-6.7317 -2.38874,-17.41326 16.81652,5.53796 z"
         id="path17146-2" />
      <path
         style="fill:#599275;fill-opacity:1;stroke:#08150e;stroke-width:0.3;stroke-linejoin:round;stroke-miterlimit:3.5;stroke-dasharray:none;stroke-dashoffset:11.2252;stroke-opacity:1;paint-order:normal"
         d="m 290.09774,60.397305 7.39255,-3.49392 -4.41939,18.78618 -5.7413,3.31474 z"
         id="path17148-6" />
      <path
         style="fill:#195c2c;fill-opacity:1;stroke:none;stroke-width:0.3;stroke-linejoin:round;stroke-miterlimit:3.5;stroke-dasharray:none;stroke-dashoffset:11.2252;stroke-opacity:1;paint-order:normal"
         d="m 279.13165,61.280667 h 3.09377 l 1.69749,2.14806 1.15119,-1.80712 0.0389,4.41439 -3.33387,-0.84855 1.12655,-0.97954 -1.81958,-1.93471 z"
         id="path17208-4-9" />
      <path
         style="fill:#195c2c;fill-opacity:1;stroke:none;stroke-width:0.3;stroke-linejoin:round;stroke-miterlimit:3.5;stroke-dasharray:none;stroke-dashoffset:11.2252;stroke-opacity:1;paint-order:normal"
         d="m 279.90196,69.968557 -2.64346,-2.35582 -0.20037,-3.00008 -1.62211,-0.2865 2.14529,-2.48941 2.70289,3.0965 -1.8999,-0.0924 0.32927,2.6431 z"
         id="path17208-6-8-4" />
      <path
         style="fill:#195c2c;fill-opacity:1;stroke:none;stroke-width:0.3;stroke-linejoin:round;stroke-miterlimit:3.5;stroke-dasharray:none;stroke-dashoffset:11.2252;stroke-opacity:1;paint-order:normal"
         d="m 286.04425,68.134027 -0.22362,3.817 -2.22222,-0.0719 0.44401,1.82505 -3.15005,-3.04131 1.84898,-2.51784 0.26073,2.40209 1.7378,-0.11896 z"
         id="path17208-2-5-4" />
    </g>
  </g>
</svg>
