<?xml version="1.0" encoding="UTF-8" standalone="no"?>
<!-- Created with Inkscape (http://www.inkscape.org/) -->

<svg
   width="31.4mm"
   height="31.4mm"
   viewBox="0 0 31.399999 31.399999"
   version="1.1"
   id="svg94230"
   xmlns="http://www.w3.org/2000/svg"
   xmlns:svg="http://www.w3.org/2000/svg">
  <defs
     id="defs94227" />
  <g
     id="layer1"
     transform="translate(0.69999999,0.69999999)">
    <path
       style="fill:none;fill-opacity:1;stroke:#08150e;stroke-width:1.4;stroke-linejoin:round;stroke-miterlimit:3.5;stroke-dasharray:none;stroke-dashoffset:11.2252;stroke-opacity:1;paint-order:stroke fill markers"
       d="m 2.895467,5.0632361 8.2903,-2.22138 15.91877,4.26542 -4.41939,18.7861799 -5.7413,3.31474 -11.65964,-6.7317 z"
       id="path17067" />
    <path
       style="fill:#2d503f;fill-opacity:1;stroke:#08150e;stroke-width:0.3;stroke-linejoin:round;stroke-miterlimit:3.5;stroke-dasharray:none;stroke-dashoffset:11.2252;stroke-opacity:1;paint-order:normal"
       d="m 11.185767,2.8418561 0.11796,17.8154499 11.38142,5.23615 4.41939,-18.7861799 z"
       id="path17150" />
    <path
       style="fill:#13261c;fill-opacity:1;stroke:#08150e;stroke-width:0.3;stroke-linejoin:round;stroke-miterlimit:3.5;stroke-dasharray:none;stroke-dashoffset:11.2252;stroke-opacity:1;paint-order:normal"
       d="m 11.303727,20.657306 -6.01952,1.81919 -2.38874,-17.4132599 8.2903,-2.22138 z"
       id="path17152" />
    <path
       style="fill:#a3c8b5;fill-opacity:1;stroke:#08150e;stroke-width:0.3;stroke-linejoin:round;stroke-miterlimit:3.5;stroke-dasharray:none;stroke-dashoffset:11.2252;stroke-opacity:1;paint-order:normal"
       d="M 16.943847,29.208196 5.284207,22.476496 2.895467,5.0632361 19.711987,10.601196 Z"
       id="path17146" />
    <path
       style="fill:#599275;fill-opacity:1;stroke:#08150e;stroke-width:0.3;stroke-linejoin:round;stroke-miterlimit:3.5;stroke-dasharray:none;stroke-dashoffset:11.2252;stroke-opacity:1;paint-order:normal"
       d="m 19.711987,10.601196 7.39255,-3.4939199 -4.41939,18.7861799 -5.7413,3.31474 z"
       id="path17148" />
    <path
       style="fill:#195c2c;fill-opacity:1;stroke:none;stroke-width:0.3;stroke-linejoin:round;stroke-miterlimit:3.5;stroke-dasharray:none;stroke-dashoffset:11.2252;stroke-opacity:1;paint-order:normal"
       d="m 8.7458973,11.484556 h 3.0937697 l 1.69749,2.14806 1.15119,-1.80712 0.0389,4.41439 -3.33387,-0.84855 1.12655,-0.97954 -1.81958,-1.93471 z"
       id="path17208-4" />
    <path
       style="fill:#195c2c;fill-opacity:1;stroke:none;stroke-width:0.3;stroke-linejoin:round;stroke-miterlimit:3.5;stroke-dasharray:none;stroke-dashoffset:11.2252;stroke-opacity:1;paint-order:normal"
       d="m 9.5162073,20.172446 -2.64346,-2.35582 -0.20037,-3.00008 -1.6221103,-0.2865 2.1452903,-2.48941 2.70289,3.0965 -1.8999,-0.0924 0.32927,2.6431 z"
       id="path17208-6-8" />
    <path
       style="fill:#195c2c;fill-opacity:1;stroke:none;stroke-width:0.3;stroke-linejoin:round;stroke-miterlimit:3.5;stroke-dasharray:none;stroke-dashoffset:11.2252;stroke-opacity:1;paint-order:normal"
       d="m 15.658497,18.337916 -0.22362,3.817 -2.22222,-0.0719 0.44401,1.82505 -3.15005,-3.04131 1.84898,-2.51784 0.26073,2.40209 1.7378,-0.11896 z"
       id="path17208-2-5" />
  </g>
</svg>
