<?xml version="1.0" encoding="UTF-8" standalone="no"?>
<!-- Created with Inkscape (http://www.inkscape.org/) -->

<svg
   width="31.4mm"
   height="31.4mm"
   viewBox="0 0 31.399999 31.399999"
   version="1.1"
   id="svg94230"
   xmlns="http://www.w3.org/2000/svg"
   xmlns:svg="http://www.w3.org/2000/svg">
  <defs
     id="defs94227" />
  <g
     id="layer1"
     transform="translate(0.69999999,0.69999999)">
    <path
       id="path58465-9-5-7-6"
       style="fill:none;fill-opacity:1;stroke:#08150e;stroke-width:1.4;stroke-linecap:round;stroke-linejoin:round;stroke-miterlimit:3.5;stroke-dasharray:none;stroke-dashoffset:11.2252;stroke-opacity:1;paint-order:normal"
       d="m 11.183265,2.7307097 -2.6878097,4.2252 2.0428097,1.00427 -5.3275302,2.8439803 -2.07209,4.85366 1.86649,-2.53407 -3.12057,4.94847 -0.0757,4.10379 2.63308,2.88098 3.59424,0.28677 2.4219502,-1.47489 -2.5556902,0.52208 -2.94703,-0.75162 -1.55366,-1.7339 1.86262,-3.91993 0.0752,-0.0816 -0.6555,2.27507 h 5.4e-4 l 14.4167502,7.08999 2.68836,-4.2252 h -5.5e-4 l -9.9929,-4.91437 11.44927,-0.13702 2.35453,-8.1717403 -5.49721,-2.70348 0.55879,-0.26884 4.62946,0.40759 1.51827,1.14997 0.18571,1.24189 -0.41397,1.1765503 1.44034,-0.9701503 0.16968,-2.25945 -3.02716,-2.25136 -4.85606,-0.36829 -2.70715,0.91176 z m 3.4848,7.26056 3.82029,1.8790203 -7.26143,0.0873 1.82669,-1.41476 z m -9.1052602,2.4629603 -0.15807,0.12661 0.0321,-0.0433 z m -2.2578,8.39952 -0.0884,0.8447 -0.0304,-0.0341 z" />
    <path
       id="path58465-9-5-7"
       style="fill:#1c485c;fill-opacity:1;stroke:#08150e;stroke-width:0.3;stroke-linecap:round;stroke-linejoin:round;stroke-miterlimit:3.5;stroke-dasharray:none;stroke-dashoffset:11.2252;stroke-opacity:1;paint-order:normal"
       d="m 11.182945,2.7309197 -2.6879497,4.2254 9.9930897,4.9141803 -11.4488502,0.13723 -2.35496,8.17159 14.4170302,7.08997 2.68795,-4.22539 -9.99311,-4.91418 11.44893,-0.13745 2.35496,-8.1716003 z" />
    <path
       style="fill:#3493be;fill-opacity:1;stroke:#08150e;stroke-width:0.3;stroke-linecap:round;stroke-linejoin:round;stroke-miterlimit:3.5;stroke-dasharray:none;stroke-dashoffset:11.2252;stroke-opacity:1;paint-order:normal"
       d="m 23.017835,13.18266 0.18735,0.003 0.0395,4.80627 -11.44884,0.13728 9.99305,4.91422 -2.68786,4.22533 -14.4170802,-7.08978 1.96829,-6.82986 z"
       id="path58465-3-1-0" />
    <path
       style="fill:#3493be;fill-opacity:1;stroke:#08150e;stroke-width:0.3;stroke-linecap:round;stroke-linejoin:round;stroke-miterlimit:3.5;stroke-dasharray:none;stroke-dashoffset:11.2252;stroke-opacity:1;paint-order:normal"
       d="m 26.580715,10.82459 0.41397,-1.1767103 -0.18535,-1.24196 -1.51869,-1.14963 -4.62913,-0.40787 -8.48218,4.0791603 -4.9894802,3.03383 -3.55969,4.66648 -0.44415,3.03632 1.76903,1.97539 2.947,0.75119 2.5557302,-0.52189 -2.4216202,1.47481 -3.59456,-0.28633 -2.63274,-2.88108 0.0753,-4.10397 3.4045,-5.39849 5.6873102,-4.5568703 9.33145,-3.14159 4.85655,0.3679 3.02667,2.25191 -0.16965,2.25904 z"
       id="path58608-8" />
    <path
       style="fill:#92bc34;fill-opacity:1;stroke:#08150e;stroke-width:0.3;stroke-linecap:round;stroke-linejoin:round;stroke-miterlimit:3.5;stroke-dasharray:none;stroke-dashoffset:11.2252;stroke-opacity:1;paint-order:normal"
       d="m 20.724005,6.4153997 -5.41923,0.92404 -6.4004907,2.9073003 -3.4674595,2.29059 -2.29841,3.1206 2.0721,-4.8539 6.2513502,-3.3371803 4.29511,-1.54473 z"
       id="path58610-1" />
    <path
       style="fill:#1c485c;fill-opacity:1;stroke:#08150e;stroke-width:0.3;stroke-linecap:round;stroke-linejoin:round;stroke-miterlimit:3.5;stroke-dasharray:none;stroke-dashoffset:11.2252;stroke-opacity:1;paint-order:normal"
       d="m 3.1363048,22.46402 2.12757,-4.47857 4.5352895,-4.92145 3.2539607,-2.52116 3.9414,-1.34637 -5.826,0.8001797 -4.9838702,4.7059203 -2.59099,3.3849 z"
       id="path58610-0-6" />
  </g>
</svg>
