<?xml version="1.0" encoding="UTF-8" standalone="no"?>
<!-- Created with Inkscape (http://www.inkscape.org/) -->

<svg
   width="108mm"
   height="108mm"
   viewBox="0 0 108 108"
   version="1.1"
   id="svg5"
   sodipodi:docname="sweden.svg"
   inkscape:version="1.2.2 (b0a8486541, 2022-12-01)"
   xmlns:inkscape="http://www.inkscape.org/namespaces/inkscape"
   xmlns:sodipodi="http://sodipodi.sourceforge.net/DTD/sodipodi-0.dtd"
   xmlns="http://www.w3.org/2000/svg"
   xmlns:svg="http://www.w3.org/2000/svg">
  <sodipodi:namedview
     id="namedview609"
     pagecolor="#ffffff"
     bordercolor="#000000"
     borderopacity="0.25"
     inkscape:showpageshadow="2"
     inkscape:pageopacity="0.0"
     inkscape:pagecheckerboard="0"
     inkscape:deskcolor="#d1d1d1"
     inkscape:document-units="mm"
     showgrid="false"
     inkscape:zoom="1.4343465"
     inkscape:cx="202.87985"
     inkscape:cy="298.39374"
     inkscape:window-width="1920"
     inkscape:window-height="1011"
     inkscape:window-x="0"
     inkscape:window-y="0"
     inkscape:window-maximized="1"
     inkscape:current-layer="layer1" />
  <defs
     id="defs2">
    <rect
       x="319.61127"
       y="343.88211"
       width="224.3391"
       height="240.80746"
       id="rect556" />
    <rect
       x="252.89104"
       y="561.25983"
       width="223.87929"
       height="189.64725"
       id="rect290" />
  </defs>
  <g
     id="layer1"
     transform="translate(-61.908203,-63.367187)">
    <rect
       style="fill:#002eff;fill-opacity:1;stroke:none;stroke-width:5.43782;stroke-linejoin:miter;stroke-dasharray:none;stroke-opacity:1;paint-order:stroke fill markers"
       id="rect3228-8-5"
       width="107.99947"
       height="107.99998"
       x="61.90873"
       y="63.367203" />
    <g
       id="g6208"
       style="fill:#202002;fill-opacity:1">
      <path
         id="path2772"
         style="color:#000000;-inkscape-font-specification:'Noto Mono';fill:#202002;fill-opacity:1;stroke-width:0.925149;-inkscape-stroke:none;paint-order:stroke fill markers"
         d="m 132.5657,95.170021 v 5.723869 l 16.98185,6.2737 -16.98185,6.27551 v 4.78884 l 27.07025,10.20164 v -5.72387 l -17.00648,-6.2737 17.00648,-6.27415 v -4.7902 z" />
      <path
         style="color:#000000;-inkscape-font-specification:'Noto Mono';fill:#202002;fill-opacity:1;stroke-width:0.969465;-inkscape-stroke:none;paint-order:stroke fill markers"
         d="m 116.98172,105.11374 c -3.50231,0 -7.07036,0.76339 -10.68108,2.26119 l -1.26319,0.52472 2.8455,5.24339 1.02005,-0.39071 c 3.10978,-1.19319 5.87689,-1.76667 8.29147,-1.76667 1.99669,0 3.31725,0.41824 4.08779,1.04943 0.77054,0.6312 1.17391,1.5165 1.17391,3.04261 v 0.36239 l -4.20556,0.12269 c -4.64179,0.1237 -8.21789,0.83079 -10.77796,2.31026 -2.56084,1.47992 -4.01371,3.9051 -4.01371,6.77224 0,2.6176 1.00163,4.88386 2.91958,6.4023 l 0.002,0.002 0.004,0.002 c 1.92839,1.51026 4.5057,2.20457 7.58674,2.20457 2.37538,0 4.37329,-0.28302 6.01773,-0.9192 l 0.006,-0.002 0.006,-0.002 c 1.14411,-0.45457 2.22125,-1.2172 3.271,-2.11397 l 0.74273,2.58584 h 0.93456 4.72984 v -18.20088 c 0,-3.14151 -1.06471,-5.72495 -3.2235,-7.28752 l -0.004,-0.002 c -2.15098,-1.5676 -5.30421,-2.20079 -9.46917,-2.20079 z m 5.42127,15.6207 v 0.95506 c 0,1.94 -0.59807,3.21694 -1.87674,4.22605 -1.27891,1.0079 -3.04685,1.56094 -5.46306,1.56094 -1.61951,0 -2.67519,-0.32451 -3.2463,-0.75499 -0.57111,-0.43048 -0.84339,-0.96268 -0.84339,-2.03092 0,-1.29569 0.40525,-1.97552 1.54432,-2.59905 l 0.004,-0.002 0.006,-0.002 c 1.11168,-0.62003 3.45157,-1.12475 6.84211,-1.24195 h 0.002 z"
         id="path2778" />
      <path
         style="color:#000000;-inkscape-font-specification:'Noto Mono';fill:#202002;fill-opacity:1;stroke-width:0.969465;-inkscape-stroke:none;paint-order:stroke fill markers"
         d="m 118.12714,134.18455 c -3.6386,0 -6.60145,0.59759 -8.86513,1.93277 -2.2453,1.32011 -3.56352,3.42625 -3.56352,5.86438 0,1.78119 0.68504,3.43913 1.94512,4.73755 l 0.006,0.006 0.008,0.008 c 1.4638,1.4633 4.13408,2.56284 8.33706,3.89196 l 0.004,0.002 0.006,0.002 c 3.10173,0.94986 5.11645,1.81934 5.6549,2.21023 0.65469,0.47527 0.79781,0.79482 0.79781,1.23818 0,0.80968 -0.22232,1.1806 -1.14732,1.64211 -0.92501,0.46149 -2.60211,0.78329 -4.94068,0.78329 -2.97282,0 -6.10739,-0.61169 -9.4179,-1.86105 l -1.67918,-0.63418 v 6.31736 l 0.71992,0.33219 c 2.53497,1.16648 6.00901,1.67042 10.51203,1.67042 3.94099,0 7.1053,-0.647 9.47107,-2.10265 l 0.002,-0.002 0.004,-0.002 c 2.35293,-1.46477 3.69839,-3.73614 3.69839,-6.36832 0,-1.93454 -0.80907,-3.70469 -2.27184,-5.0169 -1.53338,-1.40778 -4.11041,-2.51673 -7.92485,-3.69567 l -0.004,-0.002 -0.004,-0.002 c -3.19223,-0.96554 -5.2738,-1.76966 -5.91135,-2.14795 -0.62016,-0.39037 -0.75032,-0.64241 -0.75032,-1.16268 0,-0.57303 0.11273,-0.78049 0.86999,-1.14193 0.75725,-0.36142 2.18226,-0.62852 4.17897,-0.62852 2.24833,0 4.9599,0.50775 8.1034,1.56094 l 1.04475,0.34918 2.64796,-5.56804 -1.26889,-0.46619 c -3.18308,-1.16664 -6.61274,-1.74592 -10.26128,-1.74592 z"
         id="path2790" />
      <path
         style="color:#000000;-inkscape-font-specification:'Noto Mono';fill:#202002;fill-opacity:1;stroke-width:0.969465;-inkscape-stroke:none;paint-order:stroke fill markers"
         d="m 97.210212,152.37369 c -1.53461,0 -2.89417,0.36396 -3.86555,1.26838 -0.97138,0.90441 -1.39806,2.24121 -1.39806,3.70887 0,1.46767 0.42668,2.80448 1.39806,3.70889 0.97138,0.90442 2.33094,1.26838 3.86555,1.26838 1.54223,0 2.904128,-0.36318 3.880748,-1.26649 0.97662,-0.90331 1.40756,-2.24166 1.40756,-3.71078 0,-1.4691 -0.43094,-2.80746 -1.40756,-3.71076 -0.97662,-0.9033 -2.338518,-1.26649 -3.880748,-1.26649 z"
         id="path2802" />
      <path
         style="color:#000000;-inkscape-font-specification:'Noto Mono';fill:#202002;fill-opacity:1;stroke-width:0.969465;-inkscape-stroke:none;paint-order:stroke fill markers"
         d="m 132.77825,124.30176 v 38.02644 h 7.3284 v -14.52365 c 0,-2.80782 0.6374,-4.71576 1.72478,-5.90967 1.08739,-1.19391 2.71599,-1.8403 5.21422,-1.8403 1.92135,0 3.15591,0.43752 3.91115,1.13627 0.75523,0.69876 1.191,1.76421 1.191,3.49938 v 17.63797 h 7.32841 v -17.86448 c 0,-3.24979 -0.97748,-5.93349 -3.01266,-7.7103 -2.03518,-1.77684 -4.95535,-2.56887 -8.5916,-2.56887 -3.12808,0 -5.76313,0.75421 -7.79188,2.21024 l 0.0266,-0.39637 v -11.69666 z"
         id="path2796-1" />
    </g>
    <g
       id="g6711"
       style="display:none">
      <rect
         style="fill:#1b0022;fill-opacity:1;stroke:none;stroke-width:11.2627;stroke-linejoin:miter;stroke-dasharray:none;stroke-opacity:1;paint-order:stroke fill markers"
         id="rect3228-8"
         width="223.68686"
         height="223.68694"
         x="4.0652966"
         y="5.5237355" />
      <path
         id="path6539"
         style="fill:#0d0010;fill-opacity:1;stroke:none;stroke-width:2.5;stroke-linejoin:miter;stroke-dasharray:none;stroke-opacity:1;paint-order:stroke fill markers"
         d="m 227.75235,121.71041 -214.395178,70.40604 -9.2919397,3.05149 v 34.04289 H 227.75235 Z" />
    </g>
    <path
       style="fill:#000000;fill-opacity:0.21279438;stroke:none;stroke-width:9.67777;stroke-linejoin:miter;stroke-dasharray:none;stroke-opacity:1;paint-order:stroke fill markers"
       d="m 76.540374,171.36716 93.368376,4e-5 3e-5,-30.66171 z"
       id="path3938-2" />
    <path
       style="color:#000000;fill:#02201d;fill-opacity:1;-inkscape-stroke:none;paint-order:stroke fill markers"
       d="M 61.908206,63.367203 V 171.36721 H 169.9082 V 63.367203 Z m 2.564453,2.564454 H 167.3457 V 168.80275 H 64.472659 Z"
       id="rect3228" />
    <g
       id="g6215"
       style="fill:#f3ff00;fill-opacity:1">
      <path
         style="color:#000000;-inkscape-font-specification:'Noto Mono';fill:#f3ff00;fill-opacity:1;stroke-width:2.35822;-inkscape-stroke:none;paint-order:stroke fill markers"
         d="m 133.80444,114.19619 19.02332,-7.02779 -19.02332,-7.02779 v -3.287851 l 24.59177,9.267641 v 0.52917 l -24.59177,9.26764 z"
         id="path2774"
         sodipodi:nodetypes="cccccccc" />
      <path
         style="color:#000000;-inkscape-font-specification:'Noto Mono';fill:#f3ff00;fill-opacity:1;stroke-width:2.47118;-inkscape-stroke:none;paint-order:stroke fill markers"
         d="m 124.94823,131.57355 -0.98581,-3.42987 h -0.21306 q -2.05153,2.1888 -4.20965,3.04624 -2.15808,0.83491 -5.56845,0.83491 -4.34286,0 -6.8207,-1.94057 -2.45116,-1.94058 -2.45116,-5.43814 0,-7.49156 13.58807,-7.85259 l 5.4086,-0.15796 v -1.55698 q 0,-5.32532 -6.50098,-5.32532 -3.91654,0 -8.739,1.85033 l -1.67852,-3.0914 q 5.2221,-2.16623 10.20438,-2.16623 6.04805,0 8.739,1.96316 2.71761,1.96314 2.71761,6.2956 v 16.96881 z m -1.30552,-12.11736 -4.31622,0.15795 q -5.2221,0.18052 -7.40683,1.39903 -2.18477,1.19594 -2.18477,3.67809 0,4.01655 5.32868,4.01655 3.91657,0 6.23452,-1.82776 2.34462,-1.85033 2.34462,-5.18993 z"
         id="path2780" />
      <path
         style="color:#000000;-inkscape-font-specification:'Noto Mono';fill:#f3ff00;fill-opacity:1;stroke-width:2.47118;-inkscape-stroke:none;paint-order:stroke fill markers"
         d="m 106.51106,159.53792 v -3.74578 q 5.14214,1.94058 9.85803,1.94058 7.3269,0 7.3269,-3.65551 0,-1.28617 -1.30552,-2.23391 -1.30552,-0.94774 -6.02138,-2.3919 -6.20791,-1.96314 -7.83315,-3.58782 -1.5986,-1.64723 -1.5986,-3.88114 0,-3.06883 2.95741,-4.80631 2.98405,-1.7601 8.23279,-1.7601 5.27538,0 9.83139,1.66984 l -1.5986,3.36212 q -4.84911,-1.62464 -8.49921,-1.62464 -6.28785,0 -6.28785,3.00114 0,1.37647 1.33217,2.21136 1.35881,0.81233 6.20792,2.27902 5.62173,1.73751 7.46012,3.42988 1.86501,1.66983 1.86501,4.10684 0,3.38471 -3.11725,5.3253 -3.11727,1.91804 -8.81893,1.91804 -6.60756,0 -9.99125,-1.55701 z"
         id="path2792" />
      <path
         style="color:#000000;-inkscape-font-specification:'Noto Mono';fill:#f3ff00;fill-opacity:1;stroke-width:2.47118;-inkscape-stroke:none;paint-order:stroke fill markers"
         d="m 97.209552,153.60528 q 4.049788,0 4.049788,3.74577 0,3.74578 -4.049788,3.74578 -4.0231,0 -4.0231,-3.74578 0,-3.74577 4.0231,-3.74577 z"
         id="path2804" />
      <path
         style="color:#000000;-inkscape-font-specification:'Noto Mono';fill:#f3ff00;fill-opacity:1;stroke-width:2.47118;-inkscape-stroke:none;paint-order:stroke fill markers"
         d="m 153.38729,161.09616 v -16.40593 c 0,-3.91125 -2.11371,-5.86688 -6.34113,-5.86688 -5.45301,0 -8.17952,2.99361 -8.17952,8.98082 v 13.29199 h -4.84906 v -35.56355 h 4.84906 v 10.42499 l -0.21305,3.24933 h 0.26642 c 1.82949,-2.52727 4.81354,-3.7909 8.95215,-3.7909 6.90949,0 10.36424,3.01618 10.36424,9.04854 v 16.63159 z"
         id="path2798" />
    </g>
    <path
       id="path3938-2-1-1"
       style="fill:#0d0010;fill-opacity:0.199457;stroke:none;stroke-width:10.0613;stroke-linejoin:miter;stroke-dasharray:none;stroke-opacity:1;paint-order:stroke fill markers"
       d="m 159.39735,142.94219 -7.24917,2.38022 v 17.00568 h 1.24024 6.088 v -17.86455 c 0,-0.52293 -0.0281,-1.02916 -0.0791,-1.52135 z m -19.29029,6.3345 -7.32824,2.40657 v 10.64483 h 7.32824 z m -10.52132,3.45508 -7.48792,2.45929 c -0.17551,0.1832 -0.42789,0.3492 -0.78755,0.52865 -0.63008,0.31435 -1.61685,0.56076 -2.9161,0.68781 l -12.6261,4.146 0.22479,0.10387 c 2.53497,1.16648 6.00902,1.67018 10.51202,1.67018 3.94099,0 7.10498,-0.64706 9.47074,-2.10271 l 0.002,-0.002 0.004,-0.002 c 2.35292,-1.46476 3.69848,-3.73591 3.69848,-6.36808 0,-0.38094 -0.033,-0.75493 -0.0946,-1.12087 z" />
    <path
       style="color:#000000;-inkscape-font-specification:'Noto Mono';fill:#fcffa3;fill-opacity:1;stroke-width:2.35822;-inkscape-stroke:none;paint-order:stroke fill markers"
       d="m 158.39621,126.75168 -24.59177,-9.26763 v -2.09601 l 24.59177,-9.26764 v 3.28785 l -19.04996,7.02779 19.04996,7.02779 z"
       id="path2786" />
  </g>
</svg>
